<svg width="625" height="486" viewBox="0 0 625 486" fill="none" xmlns="http://www.w3.org/2000/svg">
<rect width="625" height="486" fill="#E5E5E5"/>
<rect width="625" height="486" fill="white"/>
<rect x="19" y="74" width="140" height="50" fill="#C4C4C4"/>
<path d="M83.9961 94.4688V100.27C83.9922 101.074 83.7383 101.732 83.2344 102.244C82.7344 102.756 82.0547 103.043 81.1953 103.105L80.8965 103.117C79.9629 103.117 79.2188 102.865 78.6641 102.361C78.1094 101.857 77.8281 101.164 77.8203 100.281V94.4688H78.9336V100.246C78.9336 100.863 79.1035 101.344 79.4434 101.688C79.7832 102.027 80.2676 102.197 80.8965 102.197C81.5332 102.197 82.0195 102.027 82.3555 101.688C82.6953 101.348 82.8652 100.869 82.8652 100.252V94.4688H83.9961ZM89.293 101.318C89.293 101.025 89.1816 100.799 88.959 100.639C88.7402 100.475 88.3555 100.334 87.8047 100.217C87.2578 100.1 86.8223 99.959 86.498 99.7949C86.1777 99.6309 85.9395 99.4355 85.7832 99.209C85.6309 98.9824 85.5547 98.7129 85.5547 98.4004C85.5547 97.8809 85.7734 97.4414 86.2109 97.082C86.6523 96.7227 87.2148 96.543 87.8984 96.543C88.6172 96.543 89.1992 96.7285 89.6445 97.0996C90.0938 97.4707 90.3184 97.9453 90.3184 98.5234H89.2285C89.2285 98.2266 89.1016 97.9707 88.8477 97.7559C88.5977 97.541 88.2812 97.4336 87.8984 97.4336C87.5039 97.4336 87.1953 97.5195 86.9727 97.6914C86.75 97.8633 86.6387 98.0879 86.6387 98.3652C86.6387 98.627 86.7422 98.8242 86.9492 98.957C87.1562 99.0898 87.5293 99.2168 88.0684 99.3379C88.6113 99.459 89.0508 99.6035 89.3867 99.7715C89.7227 99.9395 89.9707 100.143 90.1309 100.381C90.2949 100.615 90.377 100.902 90.377 101.242C90.377 101.809 90.1504 102.264 89.6973 102.607C89.2441 102.947 88.6562 103.117 87.9336 103.117C87.4258 103.117 86.9766 103.027 86.5859 102.848C86.1953 102.668 85.8887 102.418 85.666 102.098C85.4473 101.773 85.3379 101.424 85.3379 101.049H86.4219C86.4414 101.412 86.5859 101.701 86.8555 101.916C87.1289 102.127 87.4883 102.232 87.9336 102.232C88.3438 102.232 88.6719 102.15 88.918 101.986C89.168 101.818 89.293 101.596 89.293 101.318ZM94.4199 103.117C93.5605 103.117 92.8613 102.836 92.3223 102.273C91.7832 101.707 91.5137 100.951 91.5137 100.006V99.8066C91.5137 99.1777 91.6328 98.6172 91.8711 98.125C92.1133 97.6289 92.4492 97.2422 92.8789 96.9648C93.3125 96.6836 93.7812 96.543 94.2852 96.543C95.1094 96.543 95.75 96.8145 96.207 97.3574C96.6641 97.9004 96.8926 98.6777 96.8926 99.6895V100.141H92.5977C92.6133 100.766 92.7949 101.271 93.1426 101.658C93.4941 102.041 93.9395 102.232 94.4785 102.232C94.8613 102.232 95.1855 102.154 95.4512 101.998C95.7168 101.842 95.9492 101.635 96.1484 101.377L96.8105 101.893C96.2793 102.709 95.4824 103.117 94.4199 103.117ZM94.2852 97.4336C93.8477 97.4336 93.4805 97.5938 93.1836 97.9141C92.8867 98.2305 92.7031 98.6758 92.6328 99.25H95.8086V99.168C95.7773 98.6172 95.6289 98.1914 95.3633 97.8906C95.0977 97.5859 94.7383 97.4336 94.2852 97.4336ZM101.217 97.6328C101.053 97.6055 100.875 97.5918 100.684 97.5918C99.9727 97.5918 99.4902 97.8945 99.2363 98.5V103H98.1523V96.6602H99.207L99.2246 97.3926C99.5801 96.8262 100.084 96.543 100.736 96.543C100.947 96.543 101.107 96.5703 101.217 96.625V97.6328Z" fill="black"/>
<rect x="297" y="74" width="140" height="50" fill="#C4C4C4"/>
<path d="M344.83 100.311L344.994 101.436L345.234 100.422L346.922 94.4688H347.871L349.518 100.422L349.752 101.453L349.934 100.305L351.258 94.4688H352.389L350.32 103H349.295L347.537 96.7832L347.402 96.1328L347.268 96.7832L345.445 103H344.42L342.357 94.4688H343.482L344.83 100.311ZM357.188 103C357.125 102.875 357.074 102.652 357.035 102.332C356.531 102.855 355.93 103.117 355.23 103.117C354.605 103.117 354.092 102.941 353.689 102.59C353.291 102.234 353.092 101.785 353.092 101.242C353.092 100.582 353.342 100.07 353.842 99.707C354.346 99.3398 355.053 99.1562 355.963 99.1562H357.018V98.6582C357.018 98.2793 356.904 97.9785 356.678 97.7559C356.451 97.5293 356.117 97.416 355.676 97.416C355.289 97.416 354.965 97.5137 354.703 97.709C354.441 97.9043 354.311 98.1406 354.311 98.418H353.221C353.221 98.1016 353.332 97.7969 353.555 97.5039C353.781 97.207 354.086 96.9727 354.469 96.8008C354.855 96.6289 355.279 96.543 355.74 96.543C356.471 96.543 357.043 96.7266 357.457 97.0938C357.871 97.457 358.086 97.959 358.102 98.5996V101.518C358.102 102.1 358.176 102.562 358.324 102.906V103H357.188ZM355.389 102.174C355.729 102.174 356.051 102.086 356.355 101.91C356.66 101.734 356.881 101.506 357.018 101.225V99.9238H356.168C354.84 99.9238 354.176 100.312 354.176 101.09C354.176 101.43 354.289 101.695 354.516 101.887C354.742 102.078 355.033 102.174 355.389 102.174ZM361.271 95.125V96.6602H362.455V97.498H361.271V101.43C361.271 101.684 361.324 101.875 361.43 102.004C361.535 102.129 361.715 102.191 361.969 102.191C362.094 102.191 362.266 102.168 362.484 102.121V103C362.199 103.078 361.922 103.117 361.652 103.117C361.168 103.117 360.803 102.971 360.557 102.678C360.311 102.385 360.188 101.969 360.188 101.43V97.498H359.033V96.6602H360.188V95.125H361.271ZM366.27 102.232C366.656 102.232 366.994 102.115 367.283 101.881C367.572 101.646 367.732 101.354 367.764 101.002H368.789C368.77 101.365 368.645 101.711 368.414 102.039C368.184 102.367 367.875 102.629 367.488 102.824C367.105 103.02 366.699 103.117 366.27 103.117C365.406 103.117 364.719 102.83 364.207 102.256C363.699 101.678 363.445 100.889 363.445 99.8887V99.707C363.445 99.0898 363.559 98.541 363.785 98.0605C364.012 97.5801 364.336 97.207 364.758 96.9414C365.184 96.6758 365.686 96.543 366.264 96.543C366.975 96.543 367.564 96.7559 368.033 97.1816C368.506 97.6074 368.758 98.1602 368.789 98.8398H367.764C367.732 98.4297 367.576 98.0938 367.295 97.832C367.018 97.5664 366.674 97.4336 366.264 97.4336C365.713 97.4336 365.285 97.6328 364.98 98.0312C364.68 98.4258 364.529 98.998 364.529 99.748V99.9531C364.529 100.684 364.68 101.246 364.98 101.641C365.281 102.035 365.711 102.232 366.27 102.232ZM371.092 97.4277C371.572 96.8379 372.197 96.543 372.967 96.543C374.307 96.543 374.982 97.2988 374.994 98.8105V103H373.91V98.8047C373.906 98.3477 373.801 98.0098 373.594 97.791C373.391 97.5723 373.072 97.4629 372.639 97.4629C372.287 97.4629 371.979 97.5566 371.713 97.7441C371.447 97.9316 371.24 98.1777 371.092 98.4824V103H370.008V94H371.092V97.4277ZM377.795 103H376.711V94H377.795V103ZM380.713 103H379.629V96.6602H380.713V103ZM379.541 94.9785C379.541 94.8027 379.594 94.6543 379.699 94.5332C379.809 94.4121 379.969 94.3516 380.18 94.3516C380.391 94.3516 380.551 94.4121 380.66 94.5332C380.77 94.6543 380.824 94.8027 380.824 94.9785C380.824 95.1543 380.77 95.3008 380.66 95.418C380.551 95.5352 380.391 95.5938 380.18 95.5938C379.969 95.5938 379.809 95.5352 379.699 95.418C379.594 95.3008 379.541 95.1543 379.541 94.9785ZM386.145 101.318C386.145 101.025 386.033 100.799 385.811 100.639C385.592 100.475 385.207 100.334 384.656 100.217C384.109 100.1 383.674 99.959 383.35 99.7949C383.029 99.6309 382.791 99.4355 382.635 99.209C382.482 98.9824 382.406 98.7129 382.406 98.4004C382.406 97.8809 382.625 97.4414 383.062 97.082C383.504 96.7227 384.066 96.543 384.75 96.543C385.469 96.543 386.051 96.7285 386.496 97.0996C386.945 97.4707 387.17 97.9453 387.17 98.5234H386.08C386.08 98.2266 385.953 97.9707 385.699 97.7559C385.449 97.541 385.133 97.4336 384.75 97.4336C384.355 97.4336 384.047 97.5195 383.824 97.6914C383.602 97.8633 383.49 98.0879 383.49 98.3652C383.49 98.627 383.594 98.8242 383.801 98.957C384.008 99.0898 384.381 99.2168 384.92 99.3379C385.463 99.459 385.902 99.6035 386.238 99.7715C386.574 99.9395 386.822 100.143 386.982 100.381C387.146 100.615 387.229 100.902 387.229 101.242C387.229 101.809 387.002 102.264 386.549 102.607C386.096 102.947 385.508 103.117 384.785 103.117C384.277 103.117 383.828 103.027 383.438 102.848C383.047 102.668 382.74 102.418 382.518 102.098C382.299 101.773 382.189 101.424 382.189 101.049H383.273C383.293 101.412 383.438 101.701 383.707 101.916C383.98 102.127 384.34 102.232 384.785 102.232C385.195 102.232 385.523 102.15 385.77 101.986C386.02 101.818 386.145 101.596 386.145 101.318ZM390.111 95.125V96.6602H391.295V97.498H390.111V101.43C390.111 101.684 390.164 101.875 390.27 102.004C390.375 102.129 390.555 102.191 390.809 102.191C390.934 102.191 391.105 102.168 391.324 102.121V103C391.039 103.078 390.762 103.117 390.492 103.117C390.008 103.117 389.643 102.971 389.396 102.678C389.15 102.385 389.027 101.969 389.027 101.43V97.498H387.873V96.6602H389.027V95.125H390.111Z" fill="black"/>
<rect x="436" y="252" width="140" height="50" fill="#C4C4C4"/>
<path d="M472.812 277.057H469.115V280.08H473.41V281H467.99V272.469H473.352V273.395H469.115V276.137H472.812V277.057ZM475.66 274.66L475.689 275.363C476.154 274.816 476.781 274.543 477.57 274.543C478.457 274.543 479.061 274.883 479.381 275.562C479.592 275.258 479.865 275.012 480.201 274.824C480.541 274.637 480.941 274.543 481.402 274.543C482.793 274.543 483.5 275.279 483.523 276.752V281H482.439V276.816C482.439 276.363 482.336 276.025 482.129 275.803C481.922 275.576 481.574 275.463 481.086 275.463C480.684 275.463 480.35 275.584 480.084 275.826C479.818 276.064 479.664 276.387 479.621 276.793V281H478.531V276.846C478.531 275.924 478.08 275.463 477.178 275.463C476.467 275.463 475.98 275.766 475.719 276.371V281H474.635V274.66H475.66ZM490.52 277.9C490.52 278.865 490.299 279.643 489.857 280.232C489.416 280.822 488.818 281.117 488.064 281.117C487.295 281.117 486.689 280.873 486.248 280.385V283.438H485.164V274.66H486.154L486.207 275.363C486.648 274.816 487.262 274.543 488.047 274.543C488.809 274.543 489.41 274.83 489.852 275.404C490.297 275.979 490.52 276.777 490.52 277.801V277.9ZM489.436 277.777C489.436 277.062 489.283 276.498 488.979 276.084C488.674 275.67 488.256 275.463 487.725 275.463C487.068 275.463 486.576 275.754 486.248 276.336V279.365C486.572 279.943 487.068 280.232 487.736 280.232C488.256 280.232 488.668 280.027 488.973 279.617C489.281 279.203 489.436 278.59 489.436 277.777ZM492.436 281V275.498H491.434V274.66H492.436V274.01C492.436 273.33 492.617 272.805 492.98 272.434C493.344 272.062 493.857 271.877 494.521 271.877C494.771 271.877 495.02 271.91 495.266 271.977L495.207 272.855C495.023 272.82 494.828 272.803 494.621 272.803C494.27 272.803 493.998 272.906 493.807 273.113C493.615 273.316 493.52 273.609 493.52 273.992V274.66H494.873V275.498H493.52V281H492.436ZM498.564 281.117C497.705 281.117 497.006 280.836 496.467 280.273C495.928 279.707 495.658 278.951 495.658 278.006V277.807C495.658 277.178 495.777 276.617 496.016 276.125C496.258 275.629 496.594 275.242 497.023 274.965C497.457 274.684 497.926 274.543 498.43 274.543C499.254 274.543 499.895 274.814 500.352 275.357C500.809 275.9 501.037 276.678 501.037 277.689V278.141H496.742C496.758 278.766 496.939 279.271 497.287 279.658C497.639 280.041 498.084 280.232 498.623 280.232C499.006 280.232 499.33 280.154 499.596 279.998C499.861 279.842 500.094 279.635 500.293 279.377L500.955 279.893C500.424 280.709 499.627 281.117 498.564 281.117ZM498.43 275.434C497.992 275.434 497.625 275.594 497.328 275.914C497.031 276.23 496.848 276.676 496.777 277.25H499.953V277.168C499.922 276.617 499.773 276.191 499.508 275.891C499.242 275.586 498.883 275.434 498.43 275.434ZM503.381 275.428C503.861 274.838 504.486 274.543 505.256 274.543C506.596 274.543 507.271 275.299 507.283 276.811V281H506.199V276.805C506.195 276.348 506.09 276.01 505.883 275.791C505.68 275.572 505.361 275.463 504.928 275.463C504.576 275.463 504.268 275.557 504.002 275.744C503.736 275.932 503.529 276.178 503.381 276.482V281H502.297V272H503.381V275.428ZM510.084 281H509V272H510.084V281ZM515.738 280.373C515.316 280.869 514.697 281.117 513.881 281.117C513.205 281.117 512.689 280.922 512.334 280.531C511.982 280.137 511.805 279.555 511.801 278.785V274.66H512.885V278.756C512.885 279.717 513.275 280.197 514.057 280.197C514.885 280.197 515.436 279.889 515.709 279.271V274.66H516.793V281H515.762L515.738 280.373ZM519.471 274.66L519.506 275.457C519.99 274.848 520.623 274.543 521.404 274.543C522.744 274.543 523.42 275.299 523.432 276.811V281H522.348V276.805C522.344 276.348 522.238 276.01 522.031 275.791C521.828 275.572 521.51 275.463 521.076 275.463C520.725 275.463 520.416 275.557 520.15 275.744C519.885 275.932 519.678 276.178 519.529 276.482V281H518.445V274.66H519.471ZM524.809 277.777C524.809 276.789 525.037 276.004 525.494 275.422C525.951 274.836 526.557 274.543 527.311 274.543C528.084 274.543 528.688 274.816 529.121 275.363L529.174 274.66H530.164V280.848C530.164 281.668 529.92 282.314 529.432 282.787C528.947 283.26 528.295 283.496 527.475 283.496C527.018 283.496 526.57 283.398 526.133 283.203C525.695 283.008 525.361 282.74 525.131 282.4L525.693 281.75C526.158 282.324 526.727 282.611 527.398 282.611C527.926 282.611 528.336 282.463 528.629 282.166C528.926 281.869 529.074 281.451 529.074 280.912V280.367C528.641 280.867 528.049 281.117 527.299 281.117C526.557 281.117 525.955 280.818 525.494 280.221C525.037 279.623 524.809 278.809 524.809 277.777ZM525.898 277.9C525.898 278.615 526.045 279.178 526.338 279.588C526.631 279.994 527.041 280.197 527.568 280.197C528.252 280.197 528.754 279.887 529.074 279.266V276.371C528.742 275.766 528.244 275.463 527.58 275.463C527.053 275.463 526.641 275.668 526.344 276.078C526.047 276.488 525.898 277.096 525.898 277.9ZM534.436 281.117C533.576 281.117 532.877 280.836 532.338 280.273C531.799 279.707 531.529 278.951 531.529 278.006V277.807C531.529 277.178 531.648 276.617 531.887 276.125C532.129 275.629 532.465 275.242 532.895 274.965C533.328 274.684 533.797 274.543 534.301 274.543C535.125 274.543 535.766 274.814 536.223 275.357C536.68 275.9 536.908 276.678 536.908 277.689V278.141H532.613C532.629 278.766 532.811 279.271 533.158 279.658C533.51 280.041 533.955 280.232 534.494 280.232C534.877 280.232 535.201 280.154 535.467 279.998C535.732 279.842 535.965 279.635 536.164 279.377L536.826 279.893C536.295 280.709 535.498 281.117 534.436 281.117ZM534.301 275.434C533.863 275.434 533.496 275.594 533.199 275.914C532.902 276.23 532.719 276.676 532.648 277.25H535.824V277.168C535.793 276.617 535.645 276.191 535.379 275.891C535.113 275.586 534.754 275.434 534.301 275.434ZM539.193 274.66L539.229 275.457C539.713 274.848 540.346 274.543 541.127 274.543C542.467 274.543 543.143 275.299 543.154 276.811V281H542.07V276.805C542.066 276.348 541.961 276.01 541.754 275.791C541.551 275.572 541.232 275.463 540.799 275.463C540.447 275.463 540.139 275.557 539.873 275.744C539.607 275.932 539.4 276.178 539.252 276.482V281H538.168V274.66H539.193Z" fill="black"/>
<rect x="436" y="391" width="140" height="50" fill="#C4C4C4"/>
<path d="M501.547 420H500.416L496.121 413.426V420H494.99V411.469H496.121L500.428 418.072V411.469H501.547V420ZM506.006 420.117C505.146 420.117 504.447 419.836 503.908 419.273C503.369 418.707 503.1 417.951 503.1 417.006V416.807C503.1 416.178 503.219 415.617 503.457 415.125C503.699 414.629 504.035 414.242 504.465 413.965C504.898 413.684 505.367 413.543 505.871 413.543C506.695 413.543 507.336 413.814 507.793 414.357C508.25 414.9 508.479 415.678 508.479 416.689V417.141H504.184C504.199 417.766 504.381 418.271 504.729 418.658C505.08 419.041 505.525 419.232 506.064 419.232C506.447 419.232 506.771 419.154 507.037 418.998C507.303 418.842 507.535 418.635 507.734 418.377L508.396 418.893C507.865 419.709 507.068 420.117 506.006 420.117ZM505.871 414.434C505.434 414.434 505.066 414.594 504.77 414.914C504.473 415.23 504.289 415.676 504.219 416.25H507.395V416.168C507.363 415.617 507.215 415.191 506.949 414.891C506.684 414.586 506.324 414.434 505.871 414.434ZM515.352 418.506L516.57 413.66H517.654L515.809 420H514.93L513.389 415.195L511.889 420H511.01L509.17 413.66H510.248L511.496 418.406L512.973 413.66H513.846L515.352 418.506ZM522.453 418.318C522.453 418.025 522.342 417.799 522.119 417.639C521.9 417.475 521.516 417.334 520.965 417.217C520.418 417.1 519.982 416.959 519.658 416.795C519.338 416.631 519.1 416.436 518.943 416.209C518.791 415.982 518.715 415.713 518.715 415.4C518.715 414.881 518.934 414.441 519.371 414.082C519.812 413.723 520.375 413.543 521.059 413.543C521.777 413.543 522.359 413.729 522.805 414.1C523.254 414.471 523.479 414.945 523.479 415.523H522.389C522.389 415.227 522.262 414.971 522.008 414.756C521.758 414.541 521.441 414.434 521.059 414.434C520.664 414.434 520.355 414.52 520.133 414.691C519.91 414.863 519.799 415.088 519.799 415.365C519.799 415.627 519.902 415.824 520.109 415.957C520.316 416.09 520.689 416.217 521.229 416.338C521.771 416.459 522.211 416.604 522.547 416.771C522.883 416.939 523.131 417.143 523.291 417.381C523.455 417.615 523.537 417.902 523.537 418.242C523.537 418.809 523.311 419.264 522.857 419.607C522.404 419.947 521.816 420.117 521.094 420.117C520.586 420.117 520.137 420.027 519.746 419.848C519.355 419.668 519.049 419.418 518.826 419.098C518.607 418.773 518.498 418.424 518.498 418.049H519.582C519.602 418.412 519.746 418.701 520.016 418.916C520.289 419.127 520.648 419.232 521.094 419.232C521.504 419.232 521.832 419.15 522.078 418.986C522.328 418.818 522.453 418.596 522.453 418.318Z" fill="black"/>
<rect x="159" y="391" width="140" height="50" fill="#C4C4C4"/>
<path d="M216.119 416.549H214.115V420H212.984V411.469H215.809C216.77 411.469 217.508 411.688 218.023 412.125C218.543 412.562 218.803 413.199 218.803 414.035C218.803 414.566 218.658 415.029 218.369 415.424C218.084 415.818 217.686 416.113 217.174 416.309L219.178 419.93V420H217.971L216.119 416.549ZM214.115 415.629H215.844C216.402 415.629 216.846 415.484 217.174 415.195C217.506 414.906 217.672 414.52 217.672 414.035C217.672 413.508 217.514 413.104 217.197 412.822C216.885 412.541 216.432 412.398 215.838 412.395H214.115V415.629ZM224.129 420C224.066 419.875 224.016 419.652 223.977 419.332C223.473 419.855 222.871 420.117 222.172 420.117C221.547 420.117 221.033 419.941 220.631 419.59C220.232 419.234 220.033 418.785 220.033 418.242C220.033 417.582 220.283 417.07 220.783 416.707C221.287 416.34 221.994 416.156 222.904 416.156H223.959V415.658C223.959 415.279 223.846 414.979 223.619 414.756C223.393 414.529 223.059 414.416 222.617 414.416C222.23 414.416 221.906 414.514 221.645 414.709C221.383 414.904 221.252 415.141 221.252 415.418H220.162C220.162 415.102 220.273 414.797 220.496 414.504C220.723 414.207 221.027 413.973 221.41 413.801C221.797 413.629 222.221 413.543 222.682 413.543C223.412 413.543 223.984 413.727 224.398 414.094C224.812 414.457 225.027 414.959 225.043 415.6V418.518C225.043 419.1 225.117 419.562 225.266 419.906V420H224.129ZM222.33 419.174C222.67 419.174 222.992 419.086 223.297 418.91C223.602 418.734 223.822 418.506 223.959 418.225V416.924H223.109C221.781 416.924 221.117 417.312 221.117 418.09C221.117 418.43 221.23 418.695 221.457 418.887C221.684 419.078 221.975 419.174 222.33 419.174ZM228.213 412.125V413.66H229.396V414.498H228.213V418.43C228.213 418.684 228.266 418.875 228.371 419.004C228.477 419.129 228.656 419.191 228.91 419.191C229.035 419.191 229.207 419.168 229.426 419.121V420C229.141 420.078 228.863 420.117 228.594 420.117C228.109 420.117 227.744 419.971 227.498 419.678C227.252 419.385 227.129 418.969 227.129 418.43V414.498H225.975V413.66H227.129V412.125H228.213ZM231.846 420H230.762V413.66H231.846V420ZM230.674 411.979C230.674 411.803 230.727 411.654 230.832 411.533C230.941 411.412 231.102 411.352 231.312 411.352C231.523 411.352 231.684 411.412 231.793 411.533C231.902 411.654 231.957 411.803 231.957 411.979C231.957 412.154 231.902 412.301 231.793 412.418C231.684 412.535 231.523 412.594 231.312 412.594C231.102 412.594 230.941 412.535 230.832 412.418C230.727 412.301 230.674 412.154 230.674 411.979ZM234.611 413.66L234.646 414.457C235.131 413.848 235.764 413.543 236.545 413.543C237.885 413.543 238.561 414.299 238.572 415.811V420H237.488V415.805C237.484 415.348 237.379 415.01 237.172 414.791C236.969 414.572 236.65 414.463 236.217 414.463C235.865 414.463 235.557 414.557 235.291 414.744C235.025 414.932 234.818 415.178 234.67 415.482V420H233.586V413.66H234.611ZM239.949 416.777C239.949 415.789 240.178 415.004 240.635 414.422C241.092 413.836 241.697 413.543 242.451 413.543C243.225 413.543 243.828 413.816 244.262 414.363L244.314 413.66H245.305V419.848C245.305 420.668 245.061 421.314 244.572 421.787C244.088 422.26 243.436 422.496 242.615 422.496C242.158 422.496 241.711 422.398 241.273 422.203C240.836 422.008 240.502 421.74 240.271 421.4L240.834 420.75C241.299 421.324 241.867 421.611 242.539 421.611C243.066 421.611 243.477 421.463 243.77 421.166C244.066 420.869 244.215 420.451 244.215 419.912V419.367C243.781 419.867 243.189 420.117 242.439 420.117C241.697 420.117 241.096 419.818 240.635 419.221C240.178 418.623 239.949 417.809 239.949 416.777ZM241.039 416.9C241.039 417.615 241.186 418.178 241.479 418.588C241.771 418.994 242.182 419.197 242.709 419.197C243.393 419.197 243.895 418.887 244.215 418.266V415.371C243.883 414.766 243.385 414.463 242.721 414.463C242.193 414.463 241.781 414.668 241.484 415.078C241.188 415.488 241.039 416.096 241.039 416.9Z" fill="black"/>
<rect x="159" y="252" width="140" height="50" fill="#C4C4C4"/>
<path d="M217.701 278.773H214.127L213.324 281H212.164L215.422 272.469H216.406L219.67 281H218.516L217.701 278.773ZM214.467 277.848H217.367L215.914 273.857L214.467 277.848ZM222.418 278.064L221.738 278.773V281H220.654V272H221.738V277.443L222.318 276.746L224.293 274.66H225.611L223.145 277.309L225.898 281H224.627L222.418 278.064ZM228.201 273.125V274.66H229.385V275.498H228.201V279.43C228.201 279.684 228.254 279.875 228.359 280.004C228.465 280.129 228.645 280.191 228.898 280.191C229.023 280.191 229.195 280.168 229.414 280.121V281C229.129 281.078 228.852 281.117 228.582 281.117C228.098 281.117 227.732 280.971 227.486 280.678C227.24 280.385 227.117 279.969 227.117 279.43V275.498H225.963V274.66H227.117V273.125H228.201ZM231.834 281H230.75V274.66H231.834V281ZM230.662 272.979C230.662 272.803 230.715 272.654 230.82 272.533C230.93 272.412 231.09 272.352 231.301 272.352C231.512 272.352 231.672 272.412 231.781 272.533C231.891 272.654 231.945 272.803 231.945 272.979C231.945 273.154 231.891 273.301 231.781 273.418C231.672 273.535 231.512 273.594 231.301 273.594C231.09 273.594 230.93 273.535 230.82 273.418C230.715 273.301 230.662 273.154 230.662 272.979ZM236.205 281.117C235.346 281.117 234.646 280.836 234.107 280.273C233.568 279.707 233.299 278.951 233.299 278.006V277.807C233.299 277.178 233.418 276.617 233.656 276.125C233.898 275.629 234.234 275.242 234.664 274.965C235.098 274.684 235.566 274.543 236.07 274.543C236.895 274.543 237.535 274.814 237.992 275.357C238.449 275.9 238.678 276.678 238.678 277.689V278.141H234.383C234.398 278.766 234.58 279.271 234.928 279.658C235.279 280.041 235.725 280.232 236.264 280.232C236.646 280.232 236.971 280.154 237.236 279.998C237.502 279.842 237.734 279.635 237.934 279.377L238.596 279.893C238.064 280.709 237.268 281.117 236.205 281.117ZM236.07 275.434C235.633 275.434 235.266 275.594 234.969 275.914C234.672 276.23 234.488 276.676 234.418 277.25H237.594V277.168C237.562 276.617 237.414 276.191 237.148 275.891C236.883 275.586 236.523 275.434 236.07 275.434ZM240.963 274.66L240.998 275.457C241.482 274.848 242.115 274.543 242.896 274.543C244.236 274.543 244.912 275.299 244.924 276.811V281H243.84V276.805C243.836 276.348 243.73 276.01 243.523 275.791C243.32 275.572 243.002 275.463 242.568 275.463C242.217 275.463 241.908 275.557 241.643 275.744C241.377 275.932 241.17 276.178 241.021 276.482V281H239.938V274.66H240.963Z" fill="black"/>
<line x1="159" y1="98.5" x2="297" y2="98.5" stroke="black"/>
<line x1="467.5" y1="188" x2="467.5" y2="252" stroke="black"/>
<line x1="544.5" y1="21" x2="544.5" y2="252" stroke="black"/>
<line x1="228.5" y1="188" x2="228.5" y2="252" stroke="black"/>
<line x1="343" y1="188.5" x2="229" y2="188.5" stroke="black"/>
<line x1="467" y1="188.5" x2="392" y2="188.5" stroke="black"/>
<line x1="88.5" y1="123.996" x2="89.5845" y2="276.996" stroke="black"/>
<line x1="545" y1="20.5" x2="89" y2="20.5" stroke="black"/>
<path d="M272.301 95.0781C271.728 95.0781 271.262 94.8906 270.902 94.5156C270.543 94.138 270.363 93.6341 270.363 93.0039V92.8711C270.363 92.4518 270.443 92.0781 270.602 91.75C270.763 91.4193 270.987 91.1615 271.273 90.9766C271.562 90.7891 271.875 90.6953 272.211 90.6953C272.76 90.6953 273.188 90.8763 273.492 91.2383C273.797 91.6003 273.949 92.1185 273.949 92.793V93.0938H271.086C271.096 93.5104 271.217 93.8477 271.449 94.1055C271.684 94.3607 271.98 94.4883 272.34 94.4883C272.595 94.4883 272.811 94.4362 272.988 94.332C273.165 94.2279 273.32 94.0898 273.453 93.918L273.895 94.2617C273.54 94.806 273.009 95.0781 272.301 95.0781ZM272.211 91.2891C271.919 91.2891 271.674 91.3958 271.477 91.6094C271.279 91.8203 271.156 92.1172 271.109 92.5H273.227V92.4453C273.206 92.0781 273.107 91.7943 272.93 91.5938C272.753 91.3906 272.513 91.2891 272.211 91.2891ZM276.832 91.4219C276.723 91.4036 276.604 91.3945 276.477 91.3945C276.003 91.3945 275.681 91.5964 275.512 92V95H274.789V90.7734H275.492L275.504 91.2617C275.741 90.8841 276.077 90.6953 276.512 90.6953C276.652 90.6953 276.759 90.7135 276.832 90.75V91.4219ZM279.961 93.8789C279.961 93.6836 279.887 93.5326 279.738 93.4258C279.592 93.3164 279.336 93.2227 278.969 93.1445C278.604 93.0664 278.314 92.9727 278.098 92.8633C277.884 92.7539 277.725 92.6237 277.621 92.4727C277.52 92.3216 277.469 92.1419 277.469 91.9336C277.469 91.5872 277.615 91.2943 277.906 91.0547C278.201 90.8151 278.576 90.6953 279.031 90.6953C279.51 90.6953 279.898 90.819 280.195 91.0664C280.495 91.3138 280.645 91.6302 280.645 92.0156H279.918C279.918 91.8177 279.833 91.6471 279.664 91.5039C279.497 91.3607 279.286 91.2891 279.031 91.2891C278.768 91.2891 278.562 91.3464 278.414 91.4609C278.266 91.5755 278.191 91.7253 278.191 91.9102C278.191 92.0846 278.26 92.2161 278.398 92.3047C278.536 92.3932 278.785 92.4779 279.145 92.5586C279.507 92.6393 279.799 92.7357 280.023 92.8477C280.247 92.9596 280.413 93.0951 280.52 93.2539C280.629 93.4102 280.684 93.6016 280.684 93.8281C280.684 94.2057 280.533 94.5091 280.23 94.7383C279.928 94.9648 279.536 95.0781 279.055 95.0781C278.716 95.0781 278.417 95.0182 278.156 94.8984C277.896 94.7786 277.691 94.612 277.543 94.3984C277.397 94.1823 277.324 93.9492 277.324 93.6992H278.047C278.06 93.9414 278.156 94.1341 278.336 94.2773C278.518 94.418 278.758 94.4883 279.055 94.4883C279.328 94.4883 279.547 94.4336 279.711 94.3242C279.878 94.2122 279.961 94.0638 279.961 93.8789ZM282.605 89.75V90.7734H283.395V91.332H282.605V93.9531C282.605 94.1224 282.641 94.25 282.711 94.3359C282.781 94.4193 282.901 94.4609 283.07 94.4609C283.154 94.4609 283.268 94.4453 283.414 94.4141V95C283.224 95.0521 283.039 95.0781 282.859 95.0781C282.536 95.0781 282.293 94.9805 282.129 94.7852C281.965 94.5898 281.883 94.3125 281.883 93.9531V91.332H281.113V90.7734H281.883V89.75H282.605ZM285.996 95.0781C285.423 95.0781 284.957 94.8906 284.598 94.5156C284.238 94.138 284.059 93.6341 284.059 93.0039V92.8711C284.059 92.4518 284.138 92.0781 284.297 91.75C284.458 91.4193 284.682 91.1615 284.969 90.9766C285.258 90.7891 285.57 90.6953 285.906 90.6953C286.456 90.6953 286.883 90.8763 287.188 91.2383C287.492 91.6003 287.645 92.1185 287.645 92.793V93.0938H284.781C284.792 93.5104 284.913 93.8477 285.145 94.1055C285.379 94.3607 285.676 94.4883 286.035 94.4883C286.29 94.4883 286.507 94.4362 286.684 94.332C286.861 94.2279 287.016 94.0898 287.148 93.918L287.59 94.2617C287.236 94.806 286.704 95.0781 285.996 95.0781ZM285.906 91.2891C285.615 91.2891 285.37 91.3958 285.172 91.6094C284.974 91.8203 284.852 92.1172 284.805 92.5H286.922V92.4453C286.901 92.0781 286.802 91.7943 286.625 91.5938C286.448 91.3906 286.208 91.2891 285.906 91.2891ZM289.27 95H288.547V89H289.27V95ZM291.215 95H290.492V89H291.215V95ZM293.355 89.75V90.7734H294.145V91.332H293.355V93.9531C293.355 94.1224 293.391 94.25 293.461 94.3359C293.531 94.4193 293.651 94.4609 293.82 94.4609C293.904 94.4609 294.018 94.4453 294.164 94.4141V95C293.974 95.0521 293.789 95.0781 293.609 95.0781C293.286 95.0781 293.043 94.9805 292.879 94.7852C292.715 94.5898 292.633 94.3125 292.633 93.9531V91.332H291.863V90.7734H292.633V89.75H293.355Z" fill="black"/>
<path d="M95.0078 209.879C95.0078 209.684 94.9336 209.533 94.7852 209.426C94.6393 209.316 94.3828 209.223 94.0156 209.145C93.651 209.066 93.3607 208.973 93.1445 208.863C92.931 208.754 92.7721 208.624 92.668 208.473C92.5664 208.322 92.5156 208.142 92.5156 207.934C92.5156 207.587 92.6615 207.294 92.9531 207.055C93.2474 206.815 93.6224 206.695 94.0781 206.695C94.5573 206.695 94.9453 206.819 95.2422 207.066C95.5417 207.314 95.6914 207.63 95.6914 208.016H94.9648C94.9648 207.818 94.8802 207.647 94.7109 207.504C94.5443 207.361 94.3333 207.289 94.0781 207.289C93.8151 207.289 93.6094 207.346 93.4609 207.461C93.3125 207.576 93.2383 207.725 93.2383 207.91C93.2383 208.085 93.3073 208.216 93.4453 208.305C93.5833 208.393 93.832 208.478 94.1914 208.559C94.5534 208.639 94.8464 208.736 95.0703 208.848C95.2943 208.96 95.4596 209.095 95.5664 209.254C95.6758 209.41 95.7305 209.602 95.7305 209.828C95.7305 210.206 95.5794 210.509 95.2773 210.738C94.9753 210.965 94.5833 211.078 94.1016 211.078C93.763 211.078 93.4635 211.018 93.2031 210.898C92.9427 210.779 92.7383 210.612 92.5898 210.398C92.444 210.182 92.3711 209.949 92.3711 209.699H93.0938C93.1068 209.941 93.2031 210.134 93.3828 210.277C93.5651 210.418 93.8047 210.488 94.1016 210.488C94.375 210.488 94.5938 210.434 94.7578 210.324C94.9245 210.212 95.0078 210.064 95.0078 209.879ZM99.2812 210.582C99 210.913 98.5872 211.078 98.043 211.078C97.5924 211.078 97.2487 210.948 97.0117 210.688C96.7773 210.424 96.6589 210.036 96.6562 209.523V206.773H97.3789V209.504C97.3789 210.145 97.6393 210.465 98.1602 210.465C98.7122 210.465 99.0794 210.259 99.2617 209.848V206.773H99.9844V211H99.2969L99.2812 210.582ZM102.781 210.488C103.039 210.488 103.264 210.41 103.457 210.254C103.65 210.098 103.757 209.902 103.777 209.668H104.461C104.448 209.91 104.365 210.141 104.211 210.359C104.057 210.578 103.852 210.753 103.594 210.883C103.339 211.013 103.068 211.078 102.781 211.078C102.206 211.078 101.747 210.887 101.406 210.504C101.068 210.118 100.898 209.592 100.898 208.926V208.805C100.898 208.393 100.974 208.027 101.125 207.707C101.276 207.387 101.492 207.138 101.773 206.961C102.057 206.784 102.392 206.695 102.777 206.695C103.251 206.695 103.645 206.837 103.957 207.121C104.272 207.405 104.44 207.773 104.461 208.227H103.777C103.757 207.953 103.652 207.729 103.465 207.555C103.28 207.378 103.051 207.289 102.777 207.289C102.41 207.289 102.125 207.422 101.922 207.688C101.721 207.951 101.621 208.332 101.621 208.832V208.969C101.621 209.456 101.721 209.831 101.922 210.094C102.122 210.357 102.409 210.488 102.781 210.488ZM105.996 207.285C106.316 206.892 106.733 206.695 107.246 206.695C108.139 206.695 108.59 207.199 108.598 208.207V211H107.875V208.203C107.872 207.898 107.802 207.673 107.664 207.527C107.529 207.382 107.316 207.309 107.027 207.309C106.793 207.309 106.587 207.371 106.41 207.496C106.233 207.621 106.095 207.785 105.996 207.988V211H105.273V205H105.996V207.285ZM110.66 205.75V206.773H111.449V207.332H110.66V209.953C110.66 210.122 110.695 210.25 110.766 210.336C110.836 210.419 110.956 210.461 111.125 210.461C111.208 210.461 111.323 210.445 111.469 210.414V211C111.279 211.052 111.094 211.078 110.914 211.078C110.591 211.078 110.348 210.98 110.184 210.785C110.02 210.59 109.938 210.312 109.938 209.953V207.332H109.168V206.773H109.938V205.75H110.66Z" fill="black"/>
<path d="M281.488 199.934C281.488 200.579 281.34 201.099 281.043 201.492C280.746 201.883 280.348 202.078 279.848 202.078C279.314 202.078 278.901 201.889 278.609 201.512L278.574 202H277.91V196H278.633V198.238C278.924 197.876 279.327 197.695 279.84 197.695C280.353 197.695 280.755 197.889 281.047 198.277C281.341 198.665 281.488 199.197 281.488 199.871V199.934ZM280.766 199.852C280.766 199.359 280.671 198.979 280.48 198.711C280.29 198.443 280.017 198.309 279.66 198.309C279.184 198.309 278.841 198.53 278.633 198.973V200.801C278.854 201.243 279.199 201.465 279.668 201.465C280.014 201.465 280.284 201.331 280.477 201.062C280.669 200.794 280.766 200.391 280.766 199.852ZM284.156 202.078C283.583 202.078 283.117 201.891 282.758 201.516C282.398 201.138 282.219 200.634 282.219 200.004V199.871C282.219 199.452 282.298 199.078 282.457 198.75C282.618 198.419 282.842 198.161 283.129 197.977C283.418 197.789 283.73 197.695 284.066 197.695C284.616 197.695 285.043 197.876 285.348 198.238C285.652 198.6 285.805 199.118 285.805 199.793V200.094H282.941C282.952 200.51 283.073 200.848 283.305 201.105C283.539 201.361 283.836 201.488 284.195 201.488C284.451 201.488 284.667 201.436 284.844 201.332C285.021 201.228 285.176 201.09 285.309 200.918L285.75 201.262C285.396 201.806 284.865 202.078 284.156 202.078ZM284.066 198.289C283.775 198.289 283.53 198.396 283.332 198.609C283.134 198.82 283.012 199.117 282.965 199.5H285.082V199.445C285.061 199.078 284.962 198.794 284.785 198.594C284.608 198.391 284.368 198.289 284.066 198.289ZM287.43 202H286.707V197.773H287.43V202ZM286.648 196.652C286.648 196.535 286.684 196.436 286.754 196.355C286.827 196.275 286.934 196.234 287.074 196.234C287.215 196.234 287.322 196.275 287.395 196.355C287.467 196.436 287.504 196.535 287.504 196.652C287.504 196.77 287.467 196.867 287.395 196.945C287.322 197.023 287.215 197.062 287.074 197.062C286.934 197.062 286.827 197.023 286.754 196.945C286.684 196.867 286.648 196.77 286.648 196.652ZM289.273 197.773L289.297 198.305C289.62 197.898 290.042 197.695 290.562 197.695C291.456 197.695 291.906 198.199 291.914 199.207V202H291.191V199.203C291.189 198.898 291.118 198.673 290.98 198.527C290.845 198.382 290.633 198.309 290.344 198.309C290.109 198.309 289.904 198.371 289.727 198.496C289.549 198.621 289.411 198.785 289.312 198.988V202H288.59V197.773H289.273ZM293.727 198.285C294.047 197.892 294.464 197.695 294.977 197.695C295.87 197.695 296.32 198.199 296.328 199.207V202H295.605V199.203C295.603 198.898 295.533 198.673 295.395 198.527C295.259 198.382 295.047 198.309 294.758 198.309C294.523 198.309 294.318 198.371 294.141 198.496C293.964 198.621 293.826 198.785 293.727 198.988V202H293.004V196H293.727V198.285ZM300.02 202C299.978 201.917 299.944 201.768 299.918 201.555C299.582 201.904 299.181 202.078 298.715 202.078C298.298 202.078 297.956 201.961 297.688 201.727C297.422 201.49 297.289 201.19 297.289 200.828C297.289 200.388 297.456 200.047 297.789 199.805C298.125 199.56 298.596 199.438 299.203 199.438H299.906V199.105C299.906 198.853 299.831 198.652 299.68 198.504C299.529 198.353 299.306 198.277 299.012 198.277C298.754 198.277 298.538 198.342 298.363 198.473C298.189 198.603 298.102 198.76 298.102 198.945H297.375C297.375 198.734 297.449 198.531 297.598 198.336C297.749 198.138 297.952 197.982 298.207 197.867C298.465 197.753 298.747 197.695 299.055 197.695C299.542 197.695 299.923 197.818 300.199 198.062C300.475 198.305 300.618 198.639 300.629 199.066V201.012C300.629 201.4 300.678 201.708 300.777 201.938V202H300.02ZM298.82 201.449C299.047 201.449 299.262 201.391 299.465 201.273C299.668 201.156 299.815 201.004 299.906 200.816V199.949H299.34C298.454 199.949 298.012 200.208 298.012 200.727C298.012 200.953 298.087 201.13 298.238 201.258C298.389 201.385 298.583 201.449 298.82 201.449ZM302.547 202H301.824V196H302.547V202ZM304.688 196.75V197.773H305.477V198.332H304.688V200.953C304.688 201.122 304.723 201.25 304.793 201.336C304.863 201.419 304.983 201.461 305.152 201.461C305.236 201.461 305.35 201.445 305.496 201.414V202C305.306 202.052 305.121 202.078 304.941 202.078C304.618 202.078 304.375 201.98 304.211 201.785C304.047 201.59 303.965 201.312 303.965 200.953V198.332H303.195V197.773H303.965V196.75H304.688ZM308.078 202.078C307.505 202.078 307.039 201.891 306.68 201.516C306.32 201.138 306.141 200.634 306.141 200.004V199.871C306.141 199.452 306.22 199.078 306.379 198.75C306.54 198.419 306.764 198.161 307.051 197.977C307.34 197.789 307.652 197.695 307.988 197.695C308.538 197.695 308.965 197.876 309.27 198.238C309.574 198.6 309.727 199.118 309.727 199.793V200.094H306.863C306.874 200.51 306.995 200.848 307.227 201.105C307.461 201.361 307.758 201.488 308.117 201.488C308.372 201.488 308.589 201.436 308.766 201.332C308.943 201.228 309.098 201.09 309.23 200.918L309.672 201.262C309.318 201.806 308.786 202.078 308.078 202.078ZM307.988 198.289C307.697 198.289 307.452 198.396 307.254 198.609C307.056 198.82 306.934 199.117 306.887 199.5H309.004V199.445C308.983 199.078 308.884 198.794 308.707 198.594C308.53 198.391 308.29 198.289 307.988 198.289ZM311.547 196.75V197.773H312.336V198.332H311.547V200.953C311.547 201.122 311.582 201.25 311.652 201.336C311.723 201.419 311.842 201.461 312.012 201.461C312.095 201.461 312.21 201.445 312.355 201.414V202C312.165 202.052 311.98 202.078 311.801 202.078C311.478 202.078 311.234 201.98 311.07 201.785C310.906 201.59 310.824 201.312 310.824 200.953V198.332H310.055V197.773H310.824V196.75H311.547Z" fill="black"/>
<path d="M425.312 186C425.271 185.917 425.237 185.768 425.211 185.555C424.875 185.904 424.474 186.078 424.008 186.078C423.591 186.078 423.249 185.961 422.98 185.727C422.715 185.49 422.582 185.19 422.582 184.828C422.582 184.388 422.749 184.047 423.082 183.805C423.418 183.56 423.889 183.438 424.496 183.438H425.199V183.105C425.199 182.853 425.124 182.652 424.973 182.504C424.822 182.353 424.599 182.277 424.305 182.277C424.047 182.277 423.831 182.342 423.656 182.473C423.482 182.603 423.395 182.76 423.395 182.945H422.668C422.668 182.734 422.742 182.531 422.891 182.336C423.042 182.138 423.245 181.982 423.5 181.867C423.758 181.753 424.04 181.695 424.348 181.695C424.835 181.695 425.216 181.818 425.492 182.062C425.768 182.305 425.911 182.639 425.922 183.066V185.012C425.922 185.4 425.971 185.708 426.07 185.938V186H425.312ZM424.113 185.449C424.34 185.449 424.555 185.391 424.758 185.273C424.961 185.156 425.108 185.004 425.199 184.816V183.949H424.633C423.747 183.949 423.305 184.208 423.305 184.727C423.305 184.953 423.38 185.13 423.531 185.258C423.682 185.385 423.876 185.449 424.113 185.449ZM427.738 181.773L427.762 182.305C428.085 181.898 428.507 181.695 429.027 181.695C429.921 181.695 430.371 182.199 430.379 183.207V186H429.656V183.203C429.654 182.898 429.583 182.673 429.445 182.527C429.31 182.382 429.098 182.309 428.809 182.309C428.574 182.309 428.368 182.371 428.191 182.496C428.014 182.621 427.876 182.785 427.777 182.988V186H427.055V181.773H427.738ZM434.078 186C434.036 185.917 434.003 185.768 433.977 185.555C433.641 185.904 433.24 186.078 432.773 186.078C432.357 186.078 432.014 185.961 431.746 185.727C431.48 185.49 431.348 185.19 431.348 184.828C431.348 184.388 431.514 184.047 431.848 183.805C432.184 183.56 432.655 183.438 433.262 183.438H433.965V183.105C433.965 182.853 433.889 182.652 433.738 182.504C433.587 182.353 433.365 182.277 433.07 182.277C432.812 182.277 432.596 182.342 432.422 182.473C432.247 182.603 432.16 182.76 432.16 182.945H431.434C431.434 182.734 431.508 182.531 431.656 182.336C431.807 182.138 432.01 181.982 432.266 181.867C432.523 181.753 432.806 181.695 433.113 181.695C433.6 181.695 433.982 181.818 434.258 182.062C434.534 182.305 434.677 182.639 434.688 183.066V185.012C434.688 185.4 434.737 185.708 434.836 185.938V186H434.078ZM432.879 185.449C433.105 185.449 433.32 185.391 433.523 185.273C433.727 185.156 433.874 185.004 433.965 184.816V183.949H433.398C432.513 183.949 432.07 184.208 432.07 184.727C432.07 184.953 432.146 185.13 432.297 185.258C432.448 185.385 432.642 185.449 432.879 185.449ZM436.605 186H435.883V180H436.605V186ZM439.148 184.941L440.133 181.773H440.906L439.207 186.652C438.944 187.355 438.526 187.707 437.953 187.707L437.816 187.695L437.547 187.645V187.059L437.742 187.074C437.987 187.074 438.177 187.025 438.312 186.926C438.451 186.827 438.564 186.646 438.652 186.383L438.812 185.953L437.305 181.773H438.094L439.148 184.941ZM444.016 184.879C444.016 184.684 443.941 184.533 443.793 184.426C443.647 184.316 443.391 184.223 443.023 184.145C442.659 184.066 442.368 183.973 442.152 183.863C441.939 183.754 441.78 183.624 441.676 183.473C441.574 183.322 441.523 183.142 441.523 182.934C441.523 182.587 441.669 182.294 441.961 182.055C442.255 181.815 442.63 181.695 443.086 181.695C443.565 181.695 443.953 181.819 444.25 182.066C444.549 182.314 444.699 182.63 444.699 183.016H443.973C443.973 182.818 443.888 182.647 443.719 182.504C443.552 182.361 443.341 182.289 443.086 182.289C442.823 182.289 442.617 182.346 442.469 182.461C442.32 182.576 442.246 182.725 442.246 182.91C442.246 183.085 442.315 183.216 442.453 183.305C442.591 183.393 442.84 183.478 443.199 183.559C443.561 183.639 443.854 183.736 444.078 183.848C444.302 183.96 444.467 184.095 444.574 184.254C444.684 184.41 444.738 184.602 444.738 184.828C444.738 185.206 444.587 185.509 444.285 185.738C443.983 185.965 443.591 186.078 443.109 186.078C442.771 186.078 442.471 186.018 442.211 185.898C441.951 185.779 441.746 185.612 441.598 185.398C441.452 185.182 441.379 184.949 441.379 184.699H442.102C442.115 184.941 442.211 185.134 442.391 185.277C442.573 185.418 442.812 185.488 443.109 185.488C443.383 185.488 443.602 185.434 443.766 185.324C443.932 185.212 444.016 185.064 444.016 184.879ZM446.465 186H445.742V181.773H446.465V186ZM445.684 180.652C445.684 180.535 445.719 180.436 445.789 180.355C445.862 180.275 445.969 180.234 446.109 180.234C446.25 180.234 446.357 180.275 446.43 180.355C446.503 180.436 446.539 180.535 446.539 180.652C446.539 180.77 446.503 180.867 446.43 180.945C446.357 181.023 446.25 181.062 446.109 181.062C445.969 181.062 445.862 181.023 445.789 180.945C445.719 180.867 445.684 180.77 445.684 180.652ZM449.379 186.078C448.806 186.078 448.34 185.891 447.98 185.516C447.621 185.138 447.441 184.634 447.441 184.004V183.871C447.441 183.452 447.521 183.078 447.68 182.75C447.841 182.419 448.065 182.161 448.352 181.977C448.641 181.789 448.953 181.695 449.289 181.695C449.839 181.695 450.266 181.876 450.57 182.238C450.875 182.6 451.027 183.118 451.027 183.793V184.094H448.164C448.174 184.51 448.296 184.848 448.527 185.105C448.762 185.361 449.059 185.488 449.418 185.488C449.673 185.488 449.889 185.436 450.066 185.332C450.243 185.228 450.398 185.09 450.531 184.918L450.973 185.262C450.618 185.806 450.087 186.078 449.379 186.078ZM449.289 182.289C448.997 182.289 448.753 182.396 448.555 182.609C448.357 182.82 448.234 183.117 448.188 183.5H450.305V183.445C450.284 183.078 450.185 182.794 450.008 182.594C449.831 182.391 449.591 182.289 449.289 182.289ZM453.91 182.422C453.801 182.404 453.682 182.395 453.555 182.395C453.081 182.395 452.759 182.596 452.59 183V186H451.867V181.773H452.57L452.582 182.262C452.819 181.884 453.155 181.695 453.59 181.695C453.73 181.695 453.837 181.714 453.91 181.75V182.422ZM455.754 180.75V181.773H456.543V182.332H455.754V184.953C455.754 185.122 455.789 185.25 455.859 185.336C455.93 185.419 456.049 185.461 456.219 185.461C456.302 185.461 456.417 185.445 456.562 185.414V186C456.372 186.052 456.188 186.078 456.008 186.078C455.685 186.078 455.441 185.98 455.277 185.785C455.113 185.59 455.031 185.312 455.031 184.953V182.332H454.262V181.773H455.031V180.75H455.754Z" fill="black"/>
<path d="M353.312 273C353.271 272.917 353.237 272.768 353.211 272.555C352.875 272.904 352.474 273.078 352.008 273.078C351.591 273.078 351.249 272.961 350.98 272.727C350.715 272.49 350.582 272.19 350.582 271.828C350.582 271.388 350.749 271.047 351.082 270.805C351.418 270.56 351.889 270.438 352.496 270.438H353.199V270.105C353.199 269.853 353.124 269.652 352.973 269.504C352.822 269.353 352.599 269.277 352.305 269.277C352.047 269.277 351.831 269.342 351.656 269.473C351.482 269.603 351.395 269.76 351.395 269.945H350.668C350.668 269.734 350.742 269.531 350.891 269.336C351.042 269.138 351.245 268.982 351.5 268.867C351.758 268.753 352.04 268.695 352.348 268.695C352.835 268.695 353.216 268.818 353.492 269.062C353.768 269.305 353.911 269.639 353.922 270.066V272.012C353.922 272.4 353.971 272.708 354.07 272.938V273H353.312ZM352.113 272.449C352.34 272.449 352.555 272.391 352.758 272.273C352.961 272.156 353.108 272.004 353.199 271.816V270.949H352.633C351.747 270.949 351.305 271.208 351.305 271.727C351.305 271.953 351.38 272.13 351.531 272.258C351.682 272.385 351.876 272.449 352.113 272.449ZM355.738 268.773L355.762 269.305C356.085 268.898 356.507 268.695 357.027 268.695C357.921 268.695 358.371 269.199 358.379 270.207V273H357.656V270.203C357.654 269.898 357.583 269.673 357.445 269.527C357.31 269.382 357.098 269.309 356.809 269.309C356.574 269.309 356.368 269.371 356.191 269.496C356.014 269.621 355.876 269.785 355.777 269.988V273H355.055V268.773H355.738ZM362.078 273C362.036 272.917 362.003 272.768 361.977 272.555C361.641 272.904 361.24 273.078 360.773 273.078C360.357 273.078 360.014 272.961 359.746 272.727C359.48 272.49 359.348 272.19 359.348 271.828C359.348 271.388 359.514 271.047 359.848 270.805C360.184 270.56 360.655 270.438 361.262 270.438H361.965V270.105C361.965 269.853 361.889 269.652 361.738 269.504C361.587 269.353 361.365 269.277 361.07 269.277C360.812 269.277 360.596 269.342 360.422 269.473C360.247 269.603 360.16 269.76 360.16 269.945H359.434C359.434 269.734 359.508 269.531 359.656 269.336C359.807 269.138 360.01 268.982 360.266 268.867C360.523 268.753 360.806 268.695 361.113 268.695C361.6 268.695 361.982 268.818 362.258 269.062C362.534 269.305 362.677 269.639 362.688 270.066V272.012C362.688 272.4 362.737 272.708 362.836 272.938V273H362.078ZM360.879 272.449C361.105 272.449 361.32 272.391 361.523 272.273C361.727 272.156 361.874 272.004 361.965 271.816V270.949H361.398C360.513 270.949 360.07 271.208 360.07 271.727C360.07 271.953 360.146 272.13 360.297 272.258C360.448 272.385 360.642 272.449 360.879 272.449ZM364.605 273H363.883V267H364.605V273ZM367.148 271.941L368.133 268.773H368.906L367.207 273.652C366.944 274.355 366.526 274.707 365.953 274.707L365.816 274.695L365.547 274.645V274.059L365.742 274.074C365.987 274.074 366.177 274.025 366.312 273.926C366.451 273.827 366.564 273.646 366.652 273.383L366.812 272.953L365.305 268.773H366.094L367.148 271.941ZM372.016 271.879C372.016 271.684 371.941 271.533 371.793 271.426C371.647 271.316 371.391 271.223 371.023 271.145C370.659 271.066 370.368 270.973 370.152 270.863C369.939 270.754 369.78 270.624 369.676 270.473C369.574 270.322 369.523 270.142 369.523 269.934C369.523 269.587 369.669 269.294 369.961 269.055C370.255 268.815 370.63 268.695 371.086 268.695C371.565 268.695 371.953 268.819 372.25 269.066C372.549 269.314 372.699 269.63 372.699 270.016H371.973C371.973 269.818 371.888 269.647 371.719 269.504C371.552 269.361 371.341 269.289 371.086 269.289C370.823 269.289 370.617 269.346 370.469 269.461C370.32 269.576 370.246 269.725 370.246 269.91C370.246 270.085 370.315 270.216 370.453 270.305C370.591 270.393 370.84 270.478 371.199 270.559C371.561 270.639 371.854 270.736 372.078 270.848C372.302 270.96 372.467 271.095 372.574 271.254C372.684 271.41 372.738 271.602 372.738 271.828C372.738 272.206 372.587 272.509 372.285 272.738C371.983 272.965 371.591 273.078 371.109 273.078C370.771 273.078 370.471 273.018 370.211 272.898C369.951 272.779 369.746 272.612 369.598 272.398C369.452 272.182 369.379 271.949 369.379 271.699H370.102C370.115 271.941 370.211 272.134 370.391 272.277C370.573 272.418 370.812 272.488 371.109 272.488C371.383 272.488 371.602 272.434 371.766 272.324C371.932 272.212 372.016 272.064 372.016 271.879ZM374.465 273H373.742V268.773H374.465V273ZM373.684 267.652C373.684 267.535 373.719 267.436 373.789 267.355C373.862 267.275 373.969 267.234 374.109 267.234C374.25 267.234 374.357 267.275 374.43 267.355C374.503 267.436 374.539 267.535 374.539 267.652C374.539 267.77 374.503 267.867 374.43 267.945C374.357 268.023 374.25 268.062 374.109 268.062C373.969 268.062 373.862 268.023 373.789 267.945C373.719 267.867 373.684 267.77 373.684 267.652ZM377.379 273.078C376.806 273.078 376.34 272.891 375.98 272.516C375.621 272.138 375.441 271.634 375.441 271.004V270.871C375.441 270.452 375.521 270.078 375.68 269.75C375.841 269.419 376.065 269.161 376.352 268.977C376.641 268.789 376.953 268.695 377.289 268.695C377.839 268.695 378.266 268.876 378.57 269.238C378.875 269.6 379.027 270.118 379.027 270.793V271.094H376.164C376.174 271.51 376.296 271.848 376.527 272.105C376.762 272.361 377.059 272.488 377.418 272.488C377.673 272.488 377.889 272.436 378.066 272.332C378.243 272.228 378.398 272.09 378.531 271.918L378.973 272.262C378.618 272.806 378.087 273.078 377.379 273.078ZM377.289 269.289C376.997 269.289 376.753 269.396 376.555 269.609C376.357 269.82 376.234 270.117 376.188 270.5H378.305V270.445C378.284 270.078 378.185 269.794 378.008 269.594C377.831 269.391 377.591 269.289 377.289 269.289ZM381.91 269.422C381.801 269.404 381.682 269.395 381.555 269.395C381.081 269.395 380.759 269.596 380.59 270V273H379.867V268.773H380.57L380.582 269.262C380.819 268.884 381.155 268.695 381.59 268.695C381.73 268.695 381.837 268.714 381.91 268.75V269.422ZM383.754 267.75V268.773H384.543V269.332H383.754V271.953C383.754 272.122 383.789 272.25 383.859 272.336C383.93 272.419 384.049 272.461 384.219 272.461C384.302 272.461 384.417 272.445 384.562 272.414V273C384.372 273.052 384.188 273.078 384.008 273.078C383.685 273.078 383.441 272.98 383.277 272.785C383.113 272.59 383.031 272.312 383.031 271.953V269.332H382.262V268.773H383.031V267.75H383.754Z" fill="black"/>
<path d="M353.312 403C353.271 402.917 353.237 402.768 353.211 402.555C352.875 402.904 352.474 403.078 352.008 403.078C351.591 403.078 351.249 402.961 350.98 402.727C350.715 402.49 350.582 402.19 350.582 401.828C350.582 401.388 350.749 401.047 351.082 400.805C351.418 400.56 351.889 400.438 352.496 400.438H353.199V400.105C353.199 399.853 353.124 399.652 352.973 399.504C352.822 399.353 352.599 399.277 352.305 399.277C352.047 399.277 351.831 399.342 351.656 399.473C351.482 399.603 351.395 399.76 351.395 399.945H350.668C350.668 399.734 350.742 399.531 350.891 399.336C351.042 399.138 351.245 398.982 351.5 398.867C351.758 398.753 352.04 398.695 352.348 398.695C352.835 398.695 353.216 398.818 353.492 399.062C353.768 399.305 353.911 399.639 353.922 400.066V402.012C353.922 402.4 353.971 402.708 354.07 402.938V403H353.312ZM352.113 402.449C352.34 402.449 352.555 402.391 352.758 402.273C352.961 402.156 353.108 402.004 353.199 401.816V400.949H352.633C351.747 400.949 351.305 401.208 351.305 401.727C351.305 401.953 351.38 402.13 351.531 402.258C351.682 402.385 351.876 402.449 352.113 402.449ZM355.738 398.773L355.762 399.305C356.085 398.898 356.507 398.695 357.027 398.695C357.921 398.695 358.371 399.199 358.379 400.207V403H357.656V400.203C357.654 399.898 357.583 399.673 357.445 399.527C357.31 399.382 357.098 399.309 356.809 399.309C356.574 399.309 356.368 399.371 356.191 399.496C356.014 399.621 355.876 399.785 355.777 399.988V403H355.055V398.773H355.738ZM362.078 403C362.036 402.917 362.003 402.768 361.977 402.555C361.641 402.904 361.24 403.078 360.773 403.078C360.357 403.078 360.014 402.961 359.746 402.727C359.48 402.49 359.348 402.19 359.348 401.828C359.348 401.388 359.514 401.047 359.848 400.805C360.184 400.56 360.655 400.438 361.262 400.438H361.965V400.105C361.965 399.853 361.889 399.652 361.738 399.504C361.587 399.353 361.365 399.277 361.07 399.277C360.812 399.277 360.596 399.342 360.422 399.473C360.247 399.603 360.16 399.76 360.16 399.945H359.434C359.434 399.734 359.508 399.531 359.656 399.336C359.807 399.138 360.01 398.982 360.266 398.867C360.523 398.753 360.806 398.695 361.113 398.695C361.6 398.695 361.982 398.818 362.258 399.062C362.534 399.305 362.677 399.639 362.688 400.066V402.012C362.688 402.4 362.737 402.708 362.836 402.938V403H362.078ZM360.879 402.449C361.105 402.449 361.32 402.391 361.523 402.273C361.727 402.156 361.874 402.004 361.965 401.816V400.949H361.398C360.513 400.949 360.07 401.208 360.07 401.727C360.07 401.953 360.146 402.13 360.297 402.258C360.448 402.385 360.642 402.449 360.879 402.449ZM364.605 403H363.883V397H364.605V403ZM367.148 401.941L368.133 398.773H368.906L367.207 403.652C366.944 404.355 366.526 404.707 365.953 404.707L365.816 404.695L365.547 404.645V404.059L365.742 404.074C365.987 404.074 366.177 404.025 366.312 403.926C366.451 403.827 366.564 403.646 366.652 403.383L366.812 402.953L365.305 398.773H366.094L367.148 401.941ZM372.016 401.879C372.016 401.684 371.941 401.533 371.793 401.426C371.647 401.316 371.391 401.223 371.023 401.145C370.659 401.066 370.368 400.973 370.152 400.863C369.939 400.754 369.78 400.624 369.676 400.473C369.574 400.322 369.523 400.142 369.523 399.934C369.523 399.587 369.669 399.294 369.961 399.055C370.255 398.815 370.63 398.695 371.086 398.695C371.565 398.695 371.953 398.819 372.25 399.066C372.549 399.314 372.699 399.63 372.699 400.016H371.973C371.973 399.818 371.888 399.647 371.719 399.504C371.552 399.361 371.341 399.289 371.086 399.289C370.823 399.289 370.617 399.346 370.469 399.461C370.32 399.576 370.246 399.725 370.246 399.91C370.246 400.085 370.315 400.216 370.453 400.305C370.591 400.393 370.84 400.478 371.199 400.559C371.561 400.639 371.854 400.736 372.078 400.848C372.302 400.96 372.467 401.095 372.574 401.254C372.684 401.41 372.738 401.602 372.738 401.828C372.738 402.206 372.587 402.509 372.285 402.738C371.983 402.965 371.591 403.078 371.109 403.078C370.771 403.078 370.471 403.018 370.211 402.898C369.951 402.779 369.746 402.612 369.598 402.398C369.452 402.182 369.379 401.949 369.379 401.699H370.102C370.115 401.941 370.211 402.134 370.391 402.277C370.573 402.418 370.812 402.488 371.109 402.488C371.383 402.488 371.602 402.434 371.766 402.324C371.932 402.212 372.016 402.064 372.016 401.879ZM374.465 403H373.742V398.773H374.465V403ZM373.684 397.652C373.684 397.535 373.719 397.436 373.789 397.355C373.862 397.275 373.969 397.234 374.109 397.234C374.25 397.234 374.357 397.275 374.43 397.355C374.503 397.436 374.539 397.535 374.539 397.652C374.539 397.77 374.503 397.867 374.43 397.945C374.357 398.023 374.25 398.062 374.109 398.062C373.969 398.062 373.862 398.023 373.789 397.945C373.719 397.867 373.684 397.77 373.684 397.652ZM377.379 403.078C376.806 403.078 376.34 402.891 375.98 402.516C375.621 402.138 375.441 401.634 375.441 401.004V400.871C375.441 400.452 375.521 400.078 375.68 399.75C375.841 399.419 376.065 399.161 376.352 398.977C376.641 398.789 376.953 398.695 377.289 398.695C377.839 398.695 378.266 398.876 378.57 399.238C378.875 399.6 379.027 400.118 379.027 400.793V401.094H376.164C376.174 401.51 376.296 401.848 376.527 402.105C376.762 402.361 377.059 402.488 377.418 402.488C377.673 402.488 377.889 402.436 378.066 402.332C378.243 402.228 378.398 402.09 378.531 401.918L378.973 402.262C378.618 402.806 378.087 403.078 377.379 403.078ZM377.289 399.289C376.997 399.289 376.753 399.396 376.555 399.609C376.357 399.82 376.234 400.117 376.188 400.5H378.305V400.445C378.284 400.078 378.185 399.794 378.008 399.594C377.831 399.391 377.591 399.289 377.289 399.289ZM381.91 399.422C381.801 399.404 381.682 399.395 381.555 399.395C381.081 399.395 380.759 399.596 380.59 400V403H379.867V398.773H380.57L380.582 399.262C380.819 398.884 381.155 398.695 381.59 398.695C381.73 398.695 381.837 398.714 381.91 398.75V399.422ZM383.754 397.75V398.773H384.543V399.332H383.754V401.953C383.754 402.122 383.789 402.25 383.859 402.336C383.93 402.419 384.049 402.461 384.219 402.461C384.302 402.461 384.417 402.445 384.562 402.414V403C384.372 403.052 384.188 403.078 384.008 403.078C383.685 403.078 383.441 402.98 383.277 402.785C383.113 402.59 383.031 402.312 383.031 401.953V399.332H382.262V398.773H383.031V397.75H383.754Z" fill="black"/>
<path d="M339.543 433.004L340.355 429.773H341.078L339.848 434H339.262L338.234 430.797L337.234 434H336.648L335.422 429.773H336.141L336.973 432.938L337.957 429.773H338.539L339.543 433.004ZM342.602 434H341.879V429.773H342.602V434ZM341.82 428.652C341.82 428.535 341.855 428.436 341.926 428.355C341.999 428.275 342.105 428.234 342.246 428.234C342.387 428.234 342.493 428.275 342.566 428.355C342.639 428.436 342.676 428.535 342.676 428.652C342.676 428.77 342.639 428.867 342.566 428.945C342.493 429.023 342.387 429.062 342.246 429.062C342.105 429.062 341.999 429.023 341.926 428.945C341.855 428.867 341.82 428.77 341.82 428.652ZM345.805 430.422C345.695 430.404 345.577 430.395 345.449 430.395C344.975 430.395 344.654 430.596 344.484 431V434H343.762V429.773H344.465L344.477 430.262C344.714 429.884 345.049 429.695 345.484 429.695C345.625 429.695 345.732 429.714 345.805 429.75V430.422ZM346.219 431.852C346.219 431.203 346.372 430.682 346.68 430.289C346.987 429.893 347.389 429.695 347.887 429.695C348.382 429.695 348.773 429.865 349.062 430.203V428H349.785V434H349.121L349.086 433.547C348.797 433.901 348.395 434.078 347.879 434.078C347.389 434.078 346.99 433.878 346.68 433.477C346.372 433.076 346.219 432.552 346.219 431.906V431.852ZM346.941 431.934C346.941 432.413 347.04 432.788 347.238 433.059C347.436 433.329 347.71 433.465 348.059 433.465C348.517 433.465 348.852 433.259 349.062 432.848V430.906C348.846 430.508 348.514 430.309 348.066 430.309C347.712 430.309 347.436 430.445 347.238 430.719C347.04 430.992 346.941 431.397 346.941 431.934ZM356.473 431.934C356.473 432.579 356.324 433.099 356.027 433.492C355.73 433.883 355.332 434.078 354.832 434.078C354.298 434.078 353.885 433.889 353.594 433.512L353.559 434H352.895V428H353.617V430.238C353.909 429.876 354.311 429.695 354.824 429.695C355.337 429.695 355.74 429.889 356.031 430.277C356.326 430.665 356.473 431.197 356.473 431.871V431.934ZM355.75 431.852C355.75 431.359 355.655 430.979 355.465 430.711C355.275 430.443 355.001 430.309 354.645 430.309C354.168 430.309 353.826 430.53 353.617 430.973V432.801C353.839 433.243 354.184 433.465 354.652 433.465C354.999 433.465 355.268 433.331 355.461 433.062C355.654 432.794 355.75 432.391 355.75 431.852ZM359.141 434.078C358.568 434.078 358.102 433.891 357.742 433.516C357.383 433.138 357.203 432.634 357.203 432.004V431.871C357.203 431.452 357.283 431.078 357.441 430.75C357.603 430.419 357.827 430.161 358.113 429.977C358.402 429.789 358.715 429.695 359.051 429.695C359.6 429.695 360.027 429.876 360.332 430.238C360.637 430.6 360.789 431.118 360.789 431.793V432.094H357.926C357.936 432.51 358.057 432.848 358.289 433.105C358.523 433.361 358.82 433.488 359.18 433.488C359.435 433.488 359.651 433.436 359.828 433.332C360.005 433.228 360.16 433.09 360.293 432.918L360.734 433.262C360.38 433.806 359.849 434.078 359.141 434.078ZM359.051 430.289C358.759 430.289 358.514 430.396 358.316 430.609C358.118 430.82 357.996 431.117 357.949 431.5H360.066V431.445C360.046 431.078 359.947 430.794 359.77 430.594C359.592 430.391 359.353 430.289 359.051 430.289ZM363.672 430.422C363.562 430.404 363.444 430.395 363.316 430.395C362.842 430.395 362.521 430.596 362.352 431V434H361.629V429.773H362.332L362.344 430.262C362.581 429.884 362.917 429.695 363.352 429.695C363.492 429.695 363.599 429.714 363.672 429.75V430.422ZM366.016 434.078C365.443 434.078 364.977 433.891 364.617 433.516C364.258 433.138 364.078 432.634 364.078 432.004V431.871C364.078 431.452 364.158 431.078 364.316 430.75C364.478 430.419 364.702 430.161 364.988 429.977C365.277 429.789 365.59 429.695 365.926 429.695C366.475 429.695 366.902 429.876 367.207 430.238C367.512 430.6 367.664 431.118 367.664 431.793V432.094H364.801C364.811 432.51 364.932 432.848 365.164 433.105C365.398 433.361 365.695 433.488 366.055 433.488C366.31 433.488 366.526 433.436 366.703 433.332C366.88 433.228 367.035 433.09 367.168 432.918L367.609 433.262C367.255 433.806 366.724 434.078 366.016 434.078ZM365.926 430.289C365.634 430.289 365.389 430.396 365.191 430.609C364.993 430.82 364.871 431.117 364.824 431.5H366.941V431.445C366.921 431.078 366.822 430.794 366.645 430.594C366.467 430.391 366.228 430.289 365.926 430.289ZM369.289 434H368.566V429.773H369.289V434ZM368.508 428.652C368.508 428.535 368.543 428.436 368.613 428.355C368.686 428.275 368.793 428.234 368.934 428.234C369.074 428.234 369.181 428.275 369.254 428.355C369.327 428.436 369.363 428.535 369.363 428.652C369.363 428.77 369.327 428.867 369.254 428.945C369.181 429.023 369.074 429.062 368.934 429.062C368.793 429.062 368.686 429.023 368.613 428.945C368.543 428.867 368.508 428.77 368.508 428.652ZM371.43 428.75V429.773H372.219V430.332H371.43V432.953C371.43 433.122 371.465 433.25 371.535 433.336C371.605 433.419 371.725 433.461 371.895 433.461C371.978 433.461 372.092 433.445 372.238 433.414V434C372.048 434.052 371.863 434.078 371.684 434.078C371.361 434.078 371.117 433.98 370.953 433.785C370.789 433.59 370.707 433.312 370.707 432.953V430.332H369.938V429.773H370.707V428.75H371.43ZM372.895 431.852C372.895 431.193 373.047 430.669 373.352 430.281C373.656 429.891 374.06 429.695 374.562 429.695C375.078 429.695 375.48 429.878 375.77 430.242L375.805 429.773H376.465V433.898C376.465 434.445 376.302 434.876 375.977 435.191C375.654 435.507 375.219 435.664 374.672 435.664C374.367 435.664 374.069 435.599 373.777 435.469C373.486 435.339 373.263 435.16 373.109 434.934L373.484 434.5C373.794 434.883 374.173 435.074 374.621 435.074C374.973 435.074 375.246 434.975 375.441 434.777C375.639 434.579 375.738 434.301 375.738 433.941V433.578C375.449 433.911 375.055 434.078 374.555 434.078C374.06 434.078 373.659 433.879 373.352 433.48C373.047 433.082 372.895 432.539 372.895 431.852ZM373.621 431.934C373.621 432.41 373.719 432.785 373.914 433.059C374.109 433.329 374.383 433.465 374.734 433.465C375.19 433.465 375.525 433.258 375.738 432.844V430.914C375.517 430.51 375.185 430.309 374.742 430.309C374.391 430.309 374.116 430.445 373.918 430.719C373.72 430.992 373.621 431.397 373.621 431.934ZM379.312 434.078C378.74 434.078 378.273 433.891 377.914 433.516C377.555 433.138 377.375 432.634 377.375 432.004V431.871C377.375 431.452 377.454 431.078 377.613 430.75C377.775 430.419 377.999 430.161 378.285 429.977C378.574 429.789 378.887 429.695 379.223 429.695C379.772 429.695 380.199 429.876 380.504 430.238C380.809 430.6 380.961 431.118 380.961 431.793V432.094H378.098C378.108 432.51 378.229 432.848 378.461 433.105C378.695 433.361 378.992 433.488 379.352 433.488C379.607 433.488 379.823 433.436 380 433.332C380.177 433.228 380.332 433.09 380.465 432.918L380.906 433.262C380.552 433.806 380.021 434.078 379.312 434.078ZM379.223 430.289C378.931 430.289 378.686 430.396 378.488 430.609C378.29 430.82 378.168 431.117 378.121 431.5H380.238V431.445C380.217 431.078 380.118 430.794 379.941 430.594C379.764 430.391 379.525 430.289 379.223 430.289ZM384.262 432.879C384.262 432.684 384.188 432.533 384.039 432.426C383.893 432.316 383.637 432.223 383.27 432.145C382.905 432.066 382.615 431.973 382.398 431.863C382.185 431.754 382.026 431.624 381.922 431.473C381.82 431.322 381.77 431.142 381.77 430.934C381.77 430.587 381.915 430.294 382.207 430.055C382.501 429.815 382.876 429.695 383.332 429.695C383.811 429.695 384.199 429.819 384.496 430.066C384.796 430.314 384.945 430.63 384.945 431.016H384.219C384.219 430.818 384.134 430.647 383.965 430.504C383.798 430.361 383.587 430.289 383.332 430.289C383.069 430.289 382.863 430.346 382.715 430.461C382.566 430.576 382.492 430.725 382.492 430.91C382.492 431.085 382.561 431.216 382.699 431.305C382.837 431.393 383.086 431.478 383.445 431.559C383.807 431.639 384.1 431.736 384.324 431.848C384.548 431.96 384.714 432.095 384.82 432.254C384.93 432.41 384.984 432.602 384.984 432.828C384.984 433.206 384.833 433.509 384.531 433.738C384.229 433.965 383.837 434.078 383.355 434.078C383.017 434.078 382.717 434.018 382.457 433.898C382.197 433.779 381.992 433.612 381.844 433.398C381.698 433.182 381.625 432.949 381.625 432.699H382.348C382.361 432.941 382.457 433.134 382.637 433.277C382.819 433.418 383.059 433.488 383.355 433.488C383.629 433.488 383.848 433.434 384.012 433.324C384.178 433.212 384.262 433.064 384.262 432.879ZM386.906 428.75V429.773H387.695V430.332H386.906V432.953C386.906 433.122 386.941 433.25 387.012 433.336C387.082 433.419 387.202 433.461 387.371 433.461C387.454 433.461 387.569 433.445 387.715 433.414V434C387.525 434.052 387.34 434.078 387.16 434.078C386.837 434.078 386.594 433.98 386.43 433.785C386.266 433.59 386.184 433.312 386.184 432.953V430.332H385.414V429.773H386.184V428.75H386.906ZM390.297 434.078C389.724 434.078 389.258 433.891 388.898 433.516C388.539 433.138 388.359 432.634 388.359 432.004V431.871C388.359 431.452 388.439 431.078 388.598 430.75C388.759 430.419 388.983 430.161 389.27 429.977C389.559 429.789 389.871 429.695 390.207 429.695C390.757 429.695 391.184 429.876 391.488 430.238C391.793 430.6 391.945 431.118 391.945 431.793V432.094H389.082C389.092 432.51 389.214 432.848 389.445 433.105C389.68 433.361 389.977 433.488 390.336 433.488C390.591 433.488 390.807 433.436 390.984 433.332C391.161 433.228 391.316 433.09 391.449 432.918L391.891 433.262C391.536 433.806 391.005 434.078 390.297 434.078ZM390.207 430.289C389.915 430.289 389.671 430.396 389.473 430.609C389.275 430.82 389.152 431.117 389.105 431.5H391.223V431.445C391.202 431.078 391.103 430.794 390.926 430.594C390.749 430.391 390.509 430.289 390.207 430.289ZM393.57 434H392.848V428H393.57V434ZM395.516 434H394.793V428H395.516V434ZM397.656 428.75V429.773H398.445V430.332H397.656V432.953C397.656 433.122 397.691 433.25 397.762 433.336C397.832 433.419 397.952 433.461 398.121 433.461C398.204 433.461 398.319 433.445 398.465 433.414V434C398.275 434.052 398.09 434.078 397.91 434.078C397.587 434.078 397.344 433.98 397.18 433.785C397.016 433.59 396.934 433.312 396.934 432.953V430.332H396.164V429.773H396.934V428.75H397.656Z" fill="black"/>
<path d="M239.438 344.934C239.438 345.579 239.289 346.099 238.992 346.492C238.695 346.883 238.297 347.078 237.797 347.078C237.263 347.078 236.85 346.889 236.559 346.512L236.523 347H235.859V341H236.582V343.238C236.874 342.876 237.276 342.695 237.789 342.695C238.302 342.695 238.704 342.889 238.996 343.277C239.29 343.665 239.438 344.197 239.438 344.871V344.934ZM238.715 344.852C238.715 344.359 238.62 343.979 238.43 343.711C238.24 343.443 237.966 343.309 237.609 343.309C237.133 343.309 236.79 343.53 236.582 343.973V345.801C236.803 346.243 237.148 346.465 237.617 346.465C237.964 346.465 238.233 346.331 238.426 346.062C238.618 345.794 238.715 345.391 238.715 344.852ZM242.105 347.078C241.533 347.078 241.066 346.891 240.707 346.516C240.348 346.138 240.168 345.634 240.168 345.004V344.871C240.168 344.452 240.247 344.078 240.406 343.75C240.568 343.419 240.792 343.161 241.078 342.977C241.367 342.789 241.68 342.695 242.016 342.695C242.565 342.695 242.992 342.876 243.297 343.238C243.602 343.6 243.754 344.118 243.754 344.793V345.094H240.891C240.901 345.51 241.022 345.848 241.254 346.105C241.488 346.361 241.785 346.488 242.145 346.488C242.4 346.488 242.616 346.436 242.793 346.332C242.97 346.228 243.125 346.09 243.258 345.918L243.699 346.262C243.345 346.806 242.814 347.078 242.105 347.078ZM242.016 343.289C241.724 343.289 241.479 343.396 241.281 343.609C241.083 343.82 240.961 344.117 240.914 344.5H243.031V344.445C243.01 344.078 242.911 343.794 242.734 343.594C242.557 343.391 242.318 343.289 242.016 343.289ZM248.336 346.004L249.148 342.773H249.871L248.641 347H248.055L247.027 343.797L246.027 347H245.441L244.215 342.773H244.934L245.766 345.938L246.75 342.773H247.332L248.336 346.004ZM252.363 347.078C251.79 347.078 251.324 346.891 250.965 346.516C250.605 346.138 250.426 345.634 250.426 345.004V344.871C250.426 344.452 250.505 344.078 250.664 343.75C250.826 343.419 251.049 343.161 251.336 342.977C251.625 342.789 251.938 342.695 252.273 342.695C252.823 342.695 253.25 342.876 253.555 343.238C253.859 343.6 254.012 344.118 254.012 344.793V345.094H251.148C251.159 345.51 251.28 345.848 251.512 346.105C251.746 346.361 252.043 346.488 252.402 346.488C252.658 346.488 252.874 346.436 253.051 346.332C253.228 346.228 253.383 346.09 253.516 345.918L253.957 346.262C253.603 346.806 253.072 347.078 252.363 347.078ZM252.273 343.289C251.982 343.289 251.737 343.396 251.539 343.609C251.341 343.82 251.219 344.117 251.172 344.5H253.289V344.445C253.268 344.078 253.169 343.794 252.992 343.594C252.815 343.391 252.576 343.289 252.273 343.289ZM256.895 343.422C256.785 343.404 256.667 343.395 256.539 343.395C256.065 343.395 255.743 343.596 255.574 344V347H254.852V342.773H255.555L255.566 343.262C255.803 342.884 256.139 342.695 256.574 342.695C256.715 342.695 256.822 342.714 256.895 342.75V343.422ZM258.738 341.75V342.773H259.527V343.332H258.738V345.953C258.738 346.122 258.773 346.25 258.844 346.336C258.914 346.419 259.034 346.461 259.203 346.461C259.286 346.461 259.401 346.445 259.547 346.414V347C259.357 347.052 259.172 347.078 258.992 347.078C258.669 347.078 258.426 346.98 258.262 346.785C258.098 346.59 258.016 346.312 258.016 345.953V343.332H257.246V342.773H258.016V341.75H258.738ZM262.129 347.078C261.556 347.078 261.09 346.891 260.73 346.516C260.371 346.138 260.191 345.634 260.191 345.004V344.871C260.191 344.452 260.271 344.078 260.43 343.75C260.591 343.419 260.815 343.161 261.102 342.977C261.391 342.789 261.703 342.695 262.039 342.695C262.589 342.695 263.016 342.876 263.32 343.238C263.625 343.6 263.777 344.118 263.777 344.793V345.094H260.914C260.924 345.51 261.046 345.848 261.277 346.105C261.512 346.361 261.809 346.488 262.168 346.488C262.423 346.488 262.639 346.436 262.816 346.332C262.993 346.228 263.148 346.09 263.281 345.918L263.723 346.262C263.368 346.806 262.837 347.078 262.129 347.078ZM262.039 343.289C261.747 343.289 261.503 343.396 261.305 343.609C261.107 343.82 260.984 344.117 260.938 344.5H263.055V344.445C263.034 344.078 262.935 343.794 262.758 343.594C262.581 343.391 262.341 343.289 262.039 343.289ZM265.598 341.75V342.773H266.387V343.332H265.598V345.953C265.598 346.122 265.633 346.25 265.703 346.336C265.773 346.419 265.893 346.461 266.062 346.461C266.146 346.461 266.26 346.445 266.406 346.414V347C266.216 347.052 266.031 347.078 265.852 347.078C265.529 347.078 265.285 346.98 265.121 346.785C264.957 346.59 264.875 346.312 264.875 345.953V343.332H264.105V342.773H264.875V341.75H265.598Z" fill="black"/>
<path d="M325.602 30.8516C325.602 30.1927 325.754 29.6693 326.059 29.2812C326.363 28.8906 326.767 28.6953 327.27 28.6953C327.785 28.6953 328.188 28.8776 328.477 29.2422L328.512 28.7734H329.172V32.8984C329.172 33.4453 329.009 33.8763 328.684 34.1914C328.361 34.5065 327.926 34.6641 327.379 34.6641C327.074 34.6641 326.776 34.599 326.484 34.4688C326.193 34.3385 325.97 34.1602 325.816 33.9336L326.191 33.5C326.501 33.8828 326.88 34.0742 327.328 34.0742C327.68 34.0742 327.953 33.9753 328.148 33.7773C328.346 33.5794 328.445 33.3008 328.445 32.9414V32.5781C328.156 32.9115 327.762 33.0781 327.262 33.0781C326.767 33.0781 326.366 32.8789 326.059 32.4805C325.754 32.082 325.602 31.5391 325.602 30.8516ZM326.328 30.9336C326.328 31.4102 326.426 31.7852 326.621 32.0586C326.816 32.3294 327.09 32.4648 327.441 32.4648C327.897 32.4648 328.232 32.2578 328.445 31.8438V29.9141C328.224 29.5104 327.892 29.3086 327.449 29.3086C327.098 29.3086 326.823 29.4453 326.625 29.7188C326.427 29.9922 326.328 30.3971 326.328 30.9336ZM331.051 33H330.328V28.7734H331.051V33ZM330.27 27.6523C330.27 27.5352 330.305 27.4362 330.375 27.3555C330.448 27.2747 330.555 27.2344 330.695 27.2344C330.836 27.2344 330.943 27.2747 331.016 27.3555C331.089 27.4362 331.125 27.5352 331.125 27.6523C331.125 27.7695 331.089 27.8672 331.016 27.9453C330.943 28.0234 330.836 28.0625 330.695 28.0625C330.555 28.0625 330.448 28.0234 330.375 27.9453C330.305 27.8672 330.27 27.7695 330.27 27.6523ZM335.789 30.9336C335.789 31.5794 335.641 32.099 335.344 32.4922C335.047 32.8828 334.648 33.0781 334.148 33.0781C333.615 33.0781 333.202 32.8893 332.91 32.5117L332.875 33H332.211V27H332.934V29.2383C333.225 28.8763 333.628 28.6953 334.141 28.6953C334.654 28.6953 335.056 28.8893 335.348 29.2773C335.642 29.6654 335.789 30.1966 335.789 30.8711V30.9336ZM335.066 30.8516C335.066 30.3594 334.971 29.9792 334.781 29.7109C334.591 29.4427 334.318 29.3086 333.961 29.3086C333.484 29.3086 333.142 29.5299 332.934 29.9727V31.8008C333.155 32.2435 333.5 32.4648 333.969 32.4648C334.315 32.4648 334.585 32.3307 334.777 32.0625C334.97 31.7943 335.066 31.3906 335.066 30.8516ZM337.684 27.75V28.7734H338.473V29.332H337.684V31.9531C337.684 32.1224 337.719 32.25 337.789 32.3359C337.859 32.4193 337.979 32.4609 338.148 32.4609C338.232 32.4609 338.346 32.4453 338.492 32.4141V33C338.302 33.0521 338.117 33.0781 337.938 33.0781C337.615 33.0781 337.371 32.9805 337.207 32.7852C337.043 32.5898 336.961 32.3125 336.961 31.9531V29.332H336.191V28.7734H336.961V27.75H337.684Z" fill="black"/>
<path d="M159.354 277.354C159.549 277.158 159.549 276.842 159.354 276.646L156.172 273.464C155.976 273.269 155.66 273.269 155.464 273.464C155.269 273.66 155.269 273.976 155.464 274.172L158.293 277L155.464 279.828C155.269 280.024 155.269 280.34 155.464 280.536C155.66 280.731 155.976 280.731 156.172 280.536L159.354 277.354ZM89 277.5H159V276.5H89V277.5Z" fill="black"/>
<path d="M343.354 123.646C343.158 123.451 342.842 123.451 342.646 123.646L339.464 126.828C339.269 127.024 339.269 127.34 339.464 127.536C339.66 127.731 339.976 127.731 340.172 127.536L343 124.707L345.828 127.536C346.024 127.731 346.34 127.731 346.536 127.536C346.731 127.34 346.731 127.024 346.536 126.828L343.354 123.646ZM343.5 189V124H342.5V189H343.5Z" fill="black"/>
<path d="M392.354 123.646C392.158 123.451 391.842 123.451 391.646 123.646L388.464 126.828C388.269 127.024 388.269 127.34 388.464 127.536C388.66 127.731 388.976 127.731 389.172 127.536L392 124.707L394.828 127.536C395.024 127.731 395.34 127.731 395.536 127.536C395.731 127.34 395.731 127.024 395.536 126.828L392.354 123.646ZM392.5 189V124H391.5V189H392.5Z" fill="black"/>
<path d="M88.6464 74.3536C88.8417 74.5488 89.1583 74.5488 89.3536 74.3536L92.5355 71.1716C92.7308 70.9763 92.7308 70.6597 92.5355 70.4645C92.3403 70.2692 92.0237 70.2692 91.8284 70.4645L89 73.2929L86.1716 70.4645C85.9763 70.2692 85.6597 70.2692 85.4645 70.4645C85.2692 70.6597 85.2692 70.9763 85.4645 71.1716L88.6464 74.3536ZM88.5 20V74H89.5V20H88.5Z" fill="black"/>
<path d="M298.646 276.646C298.451 276.842 298.451 277.158 298.646 277.354L301.828 280.536C302.024 280.731 302.34 280.731 302.536 280.536C302.731 280.34 302.731 280.024 302.536 279.828L299.707 277L302.536 274.172C302.731 273.976 302.731 273.66 302.536 273.464C302.34 273.269 302.024 273.269 301.828 273.464L298.646 276.646ZM436 276.5L299 276.5L299 277.5L436 277.5L436 276.5Z" fill="black"/>
<path d="M229.354 301.646C229.158 301.451 228.842 301.451 228.646 301.646L225.464 304.828C225.269 305.024 225.269 305.34 225.464 305.536C225.66 305.731 225.976 305.731 226.172 305.536L229 302.707L231.828 305.536C232.024 305.731 232.34 305.731 232.536 305.536C232.731 305.34 232.731 305.024 232.536 304.828L229.354 301.646ZM229.5 391L229.5 302H228.5L228.5 391H229.5Z" fill="black"/>
<path d="M436.354 409.354C436.549 409.158 436.549 408.842 436.354 408.646L433.172 405.464C432.976 405.269 432.66 405.269 432.464 405.464C432.269 405.66 432.269 405.976 432.464 406.172L435.293 409L432.464 411.828C432.269 412.024 432.269 412.34 432.464 412.536C432.66 412.731 432.976 412.731 433.172 412.536L436.354 409.354ZM299 409.5L436 409.5V408.5L299 408.5V409.5Z" fill="black"/>
<path d="M298.646 422.646C298.451 422.842 298.451 423.158 298.646 423.354L301.828 426.536C302.024 426.731 302.34 426.731 302.536 426.536C302.731 426.34 302.731 426.024 302.536 425.828L299.707 423L302.536 420.172C302.731 419.976 302.731 419.66 302.536 419.464C302.34 419.269 302.024 419.269 301.828 419.464L298.646 422.646ZM436 422.5H299V423.5H436V422.5Z" fill="black"/>
</svg>
