<svg width="760" height="613" viewBox="0 0 760 613" fill="none" xmlns="http://www.w3.org/2000/svg">
<rect width="760" height="613" fill="#E5E5E5"/>
<g clip-path="url(#clip0)">
<rect width="760" height="613" fill="white"/>
<rect x="19" y="74" width="140" height="50" fill="#C4C4C4"/>
<path d="M83.9961 94.4688V100.27C83.9922 101.074 83.7383 101.732 83.2344 102.244C82.7344 102.756 82.0547 103.043 81.1953 103.105L80.8965 103.117C79.9629 103.117 79.2188 102.865 78.6641 102.361C78.1094 101.857 77.8281 101.164 77.8203 100.281V94.4688H78.9336V100.246C78.9336 100.863 79.1035 101.344 79.4434 101.688C79.7832 102.027 80.2676 102.197 80.8965 102.197C81.5332 102.197 82.0195 102.027 82.3555 101.688C82.6953 101.348 82.8652 100.869 82.8652 100.252V94.4688H83.9961ZM89.293 101.318C89.293 101.025 89.1816 100.799 88.959 100.639C88.7402 100.475 88.3555 100.334 87.8047 100.217C87.2578 100.1 86.8223 99.959 86.498 99.7949C86.1777 99.6309 85.9395 99.4355 85.7832 99.209C85.6309 98.9824 85.5547 98.7129 85.5547 98.4004C85.5547 97.8809 85.7734 97.4414 86.2109 97.082C86.6523 96.7227 87.2148 96.543 87.8984 96.543C88.6172 96.543 89.1992 96.7285 89.6445 97.0996C90.0938 97.4707 90.3184 97.9453 90.3184 98.5234H89.2285C89.2285 98.2266 89.1016 97.9707 88.8477 97.7559C88.5977 97.541 88.2812 97.4336 87.8984 97.4336C87.5039 97.4336 87.1953 97.5195 86.9727 97.6914C86.75 97.8633 86.6387 98.0879 86.6387 98.3652C86.6387 98.627 86.7422 98.8242 86.9492 98.957C87.1562 99.0898 87.5293 99.2168 88.0684 99.3379C88.6113 99.459 89.0508 99.6035 89.3867 99.7715C89.7227 99.9395 89.9707 100.143 90.1309 100.381C90.2949 100.615 90.377 100.902 90.377 101.242C90.377 101.809 90.1504 102.264 89.6973 102.607C89.2441 102.947 88.6562 103.117 87.9336 103.117C87.4258 103.117 86.9766 103.027 86.5859 102.848C86.1953 102.668 85.8887 102.418 85.666 102.098C85.4473 101.773 85.3379 101.424 85.3379 101.049H86.4219C86.4414 101.412 86.5859 101.701 86.8555 101.916C87.1289 102.127 87.4883 102.232 87.9336 102.232C88.3438 102.232 88.6719 102.15 88.918 101.986C89.168 101.818 89.293 101.596 89.293 101.318ZM94.4199 103.117C93.5605 103.117 92.8613 102.836 92.3223 102.273C91.7832 101.707 91.5137 100.951 91.5137 100.006V99.8066C91.5137 99.1777 91.6328 98.6172 91.8711 98.125C92.1133 97.6289 92.4492 97.2422 92.8789 96.9648C93.3125 96.6836 93.7812 96.543 94.2852 96.543C95.1094 96.543 95.75 96.8145 96.207 97.3574C96.6641 97.9004 96.8926 98.6777 96.8926 99.6895V100.141H92.5977C92.6133 100.766 92.7949 101.271 93.1426 101.658C93.4941 102.041 93.9395 102.232 94.4785 102.232C94.8613 102.232 95.1855 102.154 95.4512 101.998C95.7168 101.842 95.9492 101.635 96.1484 101.377L96.8105 101.893C96.2793 102.709 95.4824 103.117 94.4199 103.117ZM94.2852 97.4336C93.8477 97.4336 93.4805 97.5938 93.1836 97.9141C92.8867 98.2305 92.7031 98.6758 92.6328 99.25H95.8086V99.168C95.7773 98.6172 95.6289 98.1914 95.3633 97.8906C95.0977 97.5859 94.7383 97.4336 94.2852 97.4336ZM101.217 97.6328C101.053 97.6055 100.875 97.5918 100.684 97.5918C99.9727 97.5918 99.4902 97.8945 99.2363 98.5V103H98.1523V96.6602H99.207L99.2246 97.3926C99.5801 96.8262 100.084 96.543 100.736 96.543C100.947 96.543 101.107 96.5703 101.217 96.625V97.6328Z" fill="black"/>
<rect x="297" y="74" width="140" height="50" fill="#C4C4C4"/>
<path d="M344.83 100.311L344.994 101.436L345.234 100.422L346.922 94.4688H347.871L349.518 100.422L349.752 101.453L349.934 100.305L351.258 94.4688H352.389L350.32 103H349.295L347.537 96.7832L347.402 96.1328L347.268 96.7832L345.445 103H344.42L342.357 94.4688H343.482L344.83 100.311ZM357.188 103C357.125 102.875 357.074 102.652 357.035 102.332C356.531 102.855 355.93 103.117 355.23 103.117C354.605 103.117 354.092 102.941 353.689 102.59C353.291 102.234 353.092 101.785 353.092 101.242C353.092 100.582 353.342 100.07 353.842 99.707C354.346 99.3398 355.053 99.1562 355.963 99.1562H357.018V98.6582C357.018 98.2793 356.904 97.9785 356.678 97.7559C356.451 97.5293 356.117 97.416 355.676 97.416C355.289 97.416 354.965 97.5137 354.703 97.709C354.441 97.9043 354.311 98.1406 354.311 98.418H353.221C353.221 98.1016 353.332 97.7969 353.555 97.5039C353.781 97.207 354.086 96.9727 354.469 96.8008C354.855 96.6289 355.279 96.543 355.74 96.543C356.471 96.543 357.043 96.7266 357.457 97.0938C357.871 97.457 358.086 97.959 358.102 98.5996V101.518C358.102 102.1 358.176 102.562 358.324 102.906V103H357.188ZM355.389 102.174C355.729 102.174 356.051 102.086 356.355 101.91C356.66 101.734 356.881 101.506 357.018 101.225V99.9238H356.168C354.84 99.9238 354.176 100.312 354.176 101.09C354.176 101.43 354.289 101.695 354.516 101.887C354.742 102.078 355.033 102.174 355.389 102.174ZM361.271 95.125V96.6602H362.455V97.498H361.271V101.43C361.271 101.684 361.324 101.875 361.43 102.004C361.535 102.129 361.715 102.191 361.969 102.191C362.094 102.191 362.266 102.168 362.484 102.121V103C362.199 103.078 361.922 103.117 361.652 103.117C361.168 103.117 360.803 102.971 360.557 102.678C360.311 102.385 360.188 101.969 360.188 101.43V97.498H359.033V96.6602H360.188V95.125H361.271ZM366.27 102.232C366.656 102.232 366.994 102.115 367.283 101.881C367.572 101.646 367.732 101.354 367.764 101.002H368.789C368.77 101.365 368.645 101.711 368.414 102.039C368.184 102.367 367.875 102.629 367.488 102.824C367.105 103.02 366.699 103.117 366.27 103.117C365.406 103.117 364.719 102.83 364.207 102.256C363.699 101.678 363.445 100.889 363.445 99.8887V99.707C363.445 99.0898 363.559 98.541 363.785 98.0605C364.012 97.5801 364.336 97.207 364.758 96.9414C365.184 96.6758 365.686 96.543 366.264 96.543C366.975 96.543 367.564 96.7559 368.033 97.1816C368.506 97.6074 368.758 98.1602 368.789 98.8398H367.764C367.732 98.4297 367.576 98.0938 367.295 97.832C367.018 97.5664 366.674 97.4336 366.264 97.4336C365.713 97.4336 365.285 97.6328 364.98 98.0312C364.68 98.4258 364.529 98.998 364.529 99.748V99.9531C364.529 100.684 364.68 101.246 364.98 101.641C365.281 102.035 365.711 102.232 366.27 102.232ZM371.092 97.4277C371.572 96.8379 372.197 96.543 372.967 96.543C374.307 96.543 374.982 97.2988 374.994 98.8105V103H373.91V98.8047C373.906 98.3477 373.801 98.0098 373.594 97.791C373.391 97.5723 373.072 97.4629 372.639 97.4629C372.287 97.4629 371.979 97.5566 371.713 97.7441C371.447 97.9316 371.24 98.1777 371.092 98.4824V103H370.008V94H371.092V97.4277ZM377.795 103H376.711V94H377.795V103ZM380.713 103H379.629V96.6602H380.713V103ZM379.541 94.9785C379.541 94.8027 379.594 94.6543 379.699 94.5332C379.809 94.4121 379.969 94.3516 380.18 94.3516C380.391 94.3516 380.551 94.4121 380.66 94.5332C380.77 94.6543 380.824 94.8027 380.824 94.9785C380.824 95.1543 380.77 95.3008 380.66 95.418C380.551 95.5352 380.391 95.5938 380.18 95.5938C379.969 95.5938 379.809 95.5352 379.699 95.418C379.594 95.3008 379.541 95.1543 379.541 94.9785ZM386.145 101.318C386.145 101.025 386.033 100.799 385.811 100.639C385.592 100.475 385.207 100.334 384.656 100.217C384.109 100.1 383.674 99.959 383.35 99.7949C383.029 99.6309 382.791 99.4355 382.635 99.209C382.482 98.9824 382.406 98.7129 382.406 98.4004C382.406 97.8809 382.625 97.4414 383.062 97.082C383.504 96.7227 384.066 96.543 384.75 96.543C385.469 96.543 386.051 96.7285 386.496 97.0996C386.945 97.4707 387.17 97.9453 387.17 98.5234H386.08C386.08 98.2266 385.953 97.9707 385.699 97.7559C385.449 97.541 385.133 97.4336 384.75 97.4336C384.355 97.4336 384.047 97.5195 383.824 97.6914C383.602 97.8633 383.49 98.0879 383.49 98.3652C383.49 98.627 383.594 98.8242 383.801 98.957C384.008 99.0898 384.381 99.2168 384.92 99.3379C385.463 99.459 385.902 99.6035 386.238 99.7715C386.574 99.9395 386.822 100.143 386.982 100.381C387.146 100.615 387.229 100.902 387.229 101.242C387.229 101.809 387.002 102.264 386.549 102.607C386.096 102.947 385.508 103.117 384.785 103.117C384.277 103.117 383.828 103.027 383.438 102.848C383.047 102.668 382.74 102.418 382.518 102.098C382.299 101.773 382.189 101.424 382.189 101.049H383.273C383.293 101.412 383.438 101.701 383.707 101.916C383.98 102.127 384.34 102.232 384.785 102.232C385.195 102.232 385.523 102.15 385.77 101.986C386.02 101.818 386.145 101.596 386.145 101.318ZM390.111 95.125V96.6602H391.295V97.498H390.111V101.43C390.111 101.684 390.164 101.875 390.27 102.004C390.375 102.129 390.555 102.191 390.809 102.191C390.934 102.191 391.105 102.168 391.324 102.121V103C391.039 103.078 390.762 103.117 390.492 103.117C390.008 103.117 389.643 102.971 389.396 102.678C389.15 102.385 389.027 101.969 389.027 101.43V97.498H387.873V96.6602H389.027V95.125H390.111Z" fill="black"/>
<rect x="554" y="131" width="140" height="50" fill="#C4C4C4"/>
<path d="M590.812 156.057H587.115V159.08H591.41V160H585.99V151.469H591.352V152.395H587.115V155.137H590.812V156.057ZM593.66 153.66L593.689 154.363C594.154 153.816 594.781 153.543 595.57 153.543C596.457 153.543 597.061 153.883 597.381 154.562C597.592 154.258 597.865 154.012 598.201 153.824C598.541 153.637 598.941 153.543 599.402 153.543C600.793 153.543 601.5 154.279 601.523 155.752V160H600.439V155.816C600.439 155.363 600.336 155.025 600.129 154.803C599.922 154.576 599.574 154.463 599.086 154.463C598.684 154.463 598.35 154.584 598.084 154.826C597.818 155.064 597.664 155.387 597.621 155.793V160H596.531V155.846C596.531 154.924 596.08 154.463 595.178 154.463C594.467 154.463 593.98 154.766 593.719 155.371V160H592.635V153.66H593.66ZM608.52 156.9C608.52 157.865 608.299 158.643 607.857 159.232C607.416 159.822 606.818 160.117 606.064 160.117C605.295 160.117 604.689 159.873 604.248 159.385V162.438H603.164V153.66H604.154L604.207 154.363C604.648 153.816 605.262 153.543 606.047 153.543C606.809 153.543 607.41 153.83 607.852 154.404C608.297 154.979 608.52 155.777 608.52 156.801V156.9ZM607.436 156.777C607.436 156.062 607.283 155.498 606.979 155.084C606.674 154.67 606.256 154.463 605.725 154.463C605.068 154.463 604.576 154.754 604.248 155.336V158.365C604.572 158.943 605.068 159.232 605.736 159.232C606.256 159.232 606.668 159.027 606.973 158.617C607.281 158.203 607.436 157.59 607.436 156.777ZM610.436 160V154.498H609.434V153.66H610.436V153.01C610.436 152.33 610.617 151.805 610.98 151.434C611.344 151.062 611.857 150.877 612.521 150.877C612.771 150.877 613.02 150.91 613.266 150.977L613.207 151.855C613.023 151.82 612.828 151.803 612.621 151.803C612.27 151.803 611.998 151.906 611.807 152.113C611.615 152.316 611.52 152.609 611.52 152.992V153.66H612.873V154.498H611.52V160H610.436ZM616.564 160.117C615.705 160.117 615.006 159.836 614.467 159.273C613.928 158.707 613.658 157.951 613.658 157.006V156.807C613.658 156.178 613.777 155.617 614.016 155.125C614.258 154.629 614.594 154.242 615.023 153.965C615.457 153.684 615.926 153.543 616.43 153.543C617.254 153.543 617.895 153.814 618.352 154.357C618.809 154.9 619.037 155.678 619.037 156.689V157.141H614.742C614.758 157.766 614.939 158.271 615.287 158.658C615.639 159.041 616.084 159.232 616.623 159.232C617.006 159.232 617.33 159.154 617.596 158.998C617.861 158.842 618.094 158.635 618.293 158.377L618.955 158.893C618.424 159.709 617.627 160.117 616.564 160.117ZM616.43 154.434C615.992 154.434 615.625 154.594 615.328 154.914C615.031 155.23 614.848 155.676 614.777 156.25H617.953V156.168C617.922 155.617 617.773 155.191 617.508 154.891C617.242 154.586 616.883 154.434 616.43 154.434ZM621.381 154.428C621.861 153.838 622.486 153.543 623.256 153.543C624.596 153.543 625.271 154.299 625.283 155.811V160H624.199V155.805C624.195 155.348 624.09 155.01 623.883 154.791C623.68 154.572 623.361 154.463 622.928 154.463C622.576 154.463 622.268 154.557 622.002 154.744C621.736 154.932 621.529 155.178 621.381 155.482V160H620.297V151H621.381V154.428ZM628.084 160H627V151H628.084V160ZM633.738 159.373C633.316 159.869 632.697 160.117 631.881 160.117C631.205 160.117 630.689 159.922 630.334 159.531C629.982 159.137 629.805 158.555 629.801 157.785V153.66H630.885V157.756C630.885 158.717 631.275 159.197 632.057 159.197C632.885 159.197 633.436 158.889 633.709 158.271V153.66H634.793V160H633.762L633.738 159.373ZM637.471 153.66L637.506 154.457C637.99 153.848 638.623 153.543 639.404 153.543C640.744 153.543 641.42 154.299 641.432 155.811V160H640.348V155.805C640.344 155.348 640.238 155.01 640.031 154.791C639.828 154.572 639.51 154.463 639.076 154.463C638.725 154.463 638.416 154.557 638.15 154.744C637.885 154.932 637.678 155.178 637.529 155.482V160H636.445V153.66H637.471ZM642.809 156.777C642.809 155.789 643.037 155.004 643.494 154.422C643.951 153.836 644.557 153.543 645.311 153.543C646.084 153.543 646.688 153.816 647.121 154.363L647.174 153.66H648.164V159.848C648.164 160.668 647.92 161.314 647.432 161.787C646.947 162.26 646.295 162.496 645.475 162.496C645.018 162.496 644.57 162.398 644.133 162.203C643.695 162.008 643.361 161.74 643.131 161.4L643.693 160.75C644.158 161.324 644.727 161.611 645.398 161.611C645.926 161.611 646.336 161.463 646.629 161.166C646.926 160.869 647.074 160.451 647.074 159.912V159.367C646.641 159.867 646.049 160.117 645.299 160.117C644.557 160.117 643.955 159.818 643.494 159.221C643.037 158.623 642.809 157.809 642.809 156.777ZM643.898 156.9C643.898 157.615 644.045 158.178 644.338 158.588C644.631 158.994 645.041 159.197 645.568 159.197C646.252 159.197 646.754 158.887 647.074 158.266V155.371C646.742 154.766 646.244 154.463 645.58 154.463C645.053 154.463 644.641 154.668 644.344 155.078C644.047 155.488 643.898 156.096 643.898 156.9ZM652.436 160.117C651.576 160.117 650.877 159.836 650.338 159.273C649.799 158.707 649.529 157.951 649.529 157.006V156.807C649.529 156.178 649.648 155.617 649.887 155.125C650.129 154.629 650.465 154.242 650.895 153.965C651.328 153.684 651.797 153.543 652.301 153.543C653.125 153.543 653.766 153.814 654.223 154.357C654.68 154.9 654.908 155.678 654.908 156.689V157.141H650.613C650.629 157.766 650.811 158.271 651.158 158.658C651.51 159.041 651.955 159.232 652.494 159.232C652.877 159.232 653.201 159.154 653.467 158.998C653.732 158.842 653.965 158.635 654.164 158.377L654.826 158.893C654.295 159.709 653.498 160.117 652.436 160.117ZM652.301 154.434C651.863 154.434 651.496 154.594 651.199 154.914C650.902 155.23 650.719 155.676 650.648 156.25H653.824V156.168C653.793 155.617 653.645 155.191 653.379 154.891C653.113 154.586 652.754 154.434 652.301 154.434ZM657.193 153.66L657.229 154.457C657.713 153.848 658.346 153.543 659.127 153.543C660.467 153.543 661.143 154.299 661.154 155.811V160H660.07V155.805C660.066 155.348 659.961 155.01 659.754 154.791C659.551 154.572 659.232 154.463 658.799 154.463C658.447 154.463 658.139 154.557 657.873 154.744C657.607 154.932 657.4 155.178 657.252 155.482V160H656.168V153.66H657.193Z" fill="black"/>
<rect x="436" y="391" width="140" height="50" fill="#C4C4C4"/>
<path d="M501.547 420H500.416L496.121 413.426V420H494.99V411.469H496.121L500.428 418.072V411.469H501.547V420ZM506.006 420.117C505.146 420.117 504.447 419.836 503.908 419.273C503.369 418.707 503.1 417.951 503.1 417.006V416.807C503.1 416.178 503.219 415.617 503.457 415.125C503.699 414.629 504.035 414.242 504.465 413.965C504.898 413.684 505.367 413.543 505.871 413.543C506.695 413.543 507.336 413.814 507.793 414.357C508.25 414.9 508.479 415.678 508.479 416.689V417.141H504.184C504.199 417.766 504.381 418.271 504.729 418.658C505.08 419.041 505.525 419.232 506.064 419.232C506.447 419.232 506.771 419.154 507.037 418.998C507.303 418.842 507.535 418.635 507.734 418.377L508.396 418.893C507.865 419.709 507.068 420.117 506.006 420.117ZM505.871 414.434C505.434 414.434 505.066 414.594 504.77 414.914C504.473 415.23 504.289 415.676 504.219 416.25H507.395V416.168C507.363 415.617 507.215 415.191 506.949 414.891C506.684 414.586 506.324 414.434 505.871 414.434ZM515.352 418.506L516.57 413.66H517.654L515.809 420H514.93L513.389 415.195L511.889 420H511.01L509.17 413.66H510.248L511.496 418.406L512.973 413.66H513.846L515.352 418.506ZM522.453 418.318C522.453 418.025 522.342 417.799 522.119 417.639C521.9 417.475 521.516 417.334 520.965 417.217C520.418 417.1 519.982 416.959 519.658 416.795C519.338 416.631 519.1 416.436 518.943 416.209C518.791 415.982 518.715 415.713 518.715 415.4C518.715 414.881 518.934 414.441 519.371 414.082C519.812 413.723 520.375 413.543 521.059 413.543C521.777 413.543 522.359 413.729 522.805 414.1C523.254 414.471 523.479 414.945 523.479 415.523H522.389C522.389 415.227 522.262 414.971 522.008 414.756C521.758 414.541 521.441 414.434 521.059 414.434C520.664 414.434 520.355 414.52 520.133 414.691C519.91 414.863 519.799 415.088 519.799 415.365C519.799 415.627 519.902 415.824 520.109 415.957C520.316 416.09 520.689 416.217 521.229 416.338C521.771 416.459 522.211 416.604 522.547 416.771C522.883 416.939 523.131 417.143 523.291 417.381C523.455 417.615 523.537 417.902 523.537 418.242C523.537 418.809 523.311 419.264 522.857 419.607C522.404 419.947 521.816 420.117 521.094 420.117C520.586 420.117 520.137 420.027 519.746 419.848C519.355 419.668 519.049 419.418 518.826 419.098C518.607 418.773 518.498 418.424 518.498 418.049H519.582C519.602 418.412 519.746 418.701 520.016 418.916C520.289 419.127 520.648 419.232 521.094 419.232C521.504 419.232 521.832 419.15 522.078 418.986C522.328 418.818 522.453 418.596 522.453 418.318Z" fill="black"/>
<rect x="159" y="391" width="140" height="50" fill="#C4C4C4"/>
<path d="M216.119 416.549H214.115V420H212.984V411.469H215.809C216.77 411.469 217.508 411.688 218.023 412.125C218.543 412.562 218.803 413.199 218.803 414.035C218.803 414.566 218.658 415.029 218.369 415.424C218.084 415.818 217.686 416.113 217.174 416.309L219.178 419.93V420H217.971L216.119 416.549ZM214.115 415.629H215.844C216.402 415.629 216.846 415.484 217.174 415.195C217.506 414.906 217.672 414.52 217.672 414.035C217.672 413.508 217.514 413.104 217.197 412.822C216.885 412.541 216.432 412.398 215.838 412.395H214.115V415.629ZM224.129 420C224.066 419.875 224.016 419.652 223.977 419.332C223.473 419.855 222.871 420.117 222.172 420.117C221.547 420.117 221.033 419.941 220.631 419.59C220.232 419.234 220.033 418.785 220.033 418.242C220.033 417.582 220.283 417.07 220.783 416.707C221.287 416.34 221.994 416.156 222.904 416.156H223.959V415.658C223.959 415.279 223.846 414.979 223.619 414.756C223.393 414.529 223.059 414.416 222.617 414.416C222.23 414.416 221.906 414.514 221.645 414.709C221.383 414.904 221.252 415.141 221.252 415.418H220.162C220.162 415.102 220.273 414.797 220.496 414.504C220.723 414.207 221.027 413.973 221.41 413.801C221.797 413.629 222.221 413.543 222.682 413.543C223.412 413.543 223.984 413.727 224.398 414.094C224.812 414.457 225.027 414.959 225.043 415.6V418.518C225.043 419.1 225.117 419.562 225.266 419.906V420H224.129ZM222.33 419.174C222.67 419.174 222.992 419.086 223.297 418.91C223.602 418.734 223.822 418.506 223.959 418.225V416.924H223.109C221.781 416.924 221.117 417.312 221.117 418.09C221.117 418.43 221.23 418.695 221.457 418.887C221.684 419.078 221.975 419.174 222.33 419.174ZM228.213 412.125V413.66H229.396V414.498H228.213V418.43C228.213 418.684 228.266 418.875 228.371 419.004C228.477 419.129 228.656 419.191 228.91 419.191C229.035 419.191 229.207 419.168 229.426 419.121V420C229.141 420.078 228.863 420.117 228.594 420.117C228.109 420.117 227.744 419.971 227.498 419.678C227.252 419.385 227.129 418.969 227.129 418.43V414.498H225.975V413.66H227.129V412.125H228.213ZM231.846 420H230.762V413.66H231.846V420ZM230.674 411.979C230.674 411.803 230.727 411.654 230.832 411.533C230.941 411.412 231.102 411.352 231.312 411.352C231.523 411.352 231.684 411.412 231.793 411.533C231.902 411.654 231.957 411.803 231.957 411.979C231.957 412.154 231.902 412.301 231.793 412.418C231.684 412.535 231.523 412.594 231.312 412.594C231.102 412.594 230.941 412.535 230.832 412.418C230.727 412.301 230.674 412.154 230.674 411.979ZM234.611 413.66L234.646 414.457C235.131 413.848 235.764 413.543 236.545 413.543C237.885 413.543 238.561 414.299 238.572 415.811V420H237.488V415.805C237.484 415.348 237.379 415.01 237.172 414.791C236.969 414.572 236.65 414.463 236.217 414.463C235.865 414.463 235.557 414.557 235.291 414.744C235.025 414.932 234.818 415.178 234.67 415.482V420H233.586V413.66H234.611ZM239.949 416.777C239.949 415.789 240.178 415.004 240.635 414.422C241.092 413.836 241.697 413.543 242.451 413.543C243.225 413.543 243.828 413.816 244.262 414.363L244.314 413.66H245.305V419.848C245.305 420.668 245.061 421.314 244.572 421.787C244.088 422.26 243.436 422.496 242.615 422.496C242.158 422.496 241.711 422.398 241.273 422.203C240.836 422.008 240.502 421.74 240.271 421.4L240.834 420.75C241.299 421.324 241.867 421.611 242.539 421.611C243.066 421.611 243.477 421.463 243.77 421.166C244.066 420.869 244.215 420.451 244.215 419.912V419.367C243.781 419.867 243.189 420.117 242.439 420.117C241.697 420.117 241.096 419.818 240.635 419.221C240.178 418.623 239.949 417.809 239.949 416.777ZM241.039 416.9C241.039 417.615 241.186 418.178 241.479 418.588C241.771 418.994 242.182 419.197 242.709 419.197C243.393 419.197 243.895 418.887 244.215 418.266V415.371C243.883 414.766 243.385 414.463 242.721 414.463C242.193 414.463 241.781 414.668 241.484 415.078C241.188 415.488 241.039 416.096 241.039 416.9Z" fill="black"/>
<rect x="159" y="252" width="140" height="50" fill="#C4C4C4"/>
<path d="M217.701 278.773H214.127L213.324 281H212.164L215.422 272.469H216.406L219.67 281H218.516L217.701 278.773ZM214.467 277.848H217.367L215.914 273.857L214.467 277.848ZM222.418 278.064L221.738 278.773V281H220.654V272H221.738V277.443L222.318 276.746L224.293 274.66H225.611L223.145 277.309L225.898 281H224.627L222.418 278.064ZM228.201 273.125V274.66H229.385V275.498H228.201V279.43C228.201 279.684 228.254 279.875 228.359 280.004C228.465 280.129 228.645 280.191 228.898 280.191C229.023 280.191 229.195 280.168 229.414 280.121V281C229.129 281.078 228.852 281.117 228.582 281.117C228.098 281.117 227.732 280.971 227.486 280.678C227.24 280.385 227.117 279.969 227.117 279.43V275.498H225.963V274.66H227.117V273.125H228.201ZM231.834 281H230.75V274.66H231.834V281ZM230.662 272.979C230.662 272.803 230.715 272.654 230.82 272.533C230.93 272.412 231.09 272.352 231.301 272.352C231.512 272.352 231.672 272.412 231.781 272.533C231.891 272.654 231.945 272.803 231.945 272.979C231.945 273.154 231.891 273.301 231.781 273.418C231.672 273.535 231.512 273.594 231.301 273.594C231.09 273.594 230.93 273.535 230.82 273.418C230.715 273.301 230.662 273.154 230.662 272.979ZM236.205 281.117C235.346 281.117 234.646 280.836 234.107 280.273C233.568 279.707 233.299 278.951 233.299 278.006V277.807C233.299 277.178 233.418 276.617 233.656 276.125C233.898 275.629 234.234 275.242 234.664 274.965C235.098 274.684 235.566 274.543 236.07 274.543C236.895 274.543 237.535 274.814 237.992 275.357C238.449 275.9 238.678 276.678 238.678 277.689V278.141H234.383C234.398 278.766 234.58 279.271 234.928 279.658C235.279 280.041 235.725 280.232 236.264 280.232C236.646 280.232 236.971 280.154 237.236 279.998C237.502 279.842 237.734 279.635 237.934 279.377L238.596 279.893C238.064 280.709 237.268 281.117 236.205 281.117ZM236.07 275.434C235.633 275.434 235.266 275.594 234.969 275.914C234.672 276.23 234.488 276.676 234.418 277.25H237.594V277.168C237.562 276.617 237.414 276.191 237.148 275.891C236.883 275.586 236.523 275.434 236.07 275.434ZM240.963 274.66L240.998 275.457C241.482 274.848 242.115 274.543 242.896 274.543C244.236 274.543 244.912 275.299 244.924 276.811V281H243.84V276.805C243.836 276.348 243.73 276.01 243.523 275.791C243.32 275.572 243.002 275.463 242.568 275.463C242.217 275.463 241.908 275.557 241.643 275.744C241.377 275.932 241.17 276.178 241.021 276.482V281H239.938V274.66H240.963Z" fill="black"/>
<line x1="159" y1="98.5" x2="297" y2="98.5" stroke="black"/>
<line x1="437.102" y1="98.5105" x2="591.102" y2="130.51" stroke="black"/>
<line x1="367.339" y1="124.368" x2="228.339" y2="252.368" stroke="black"/>
<line x1="88.4535" y1="123.79" x2="159.454" y2="276.79" stroke="black"/>
<line x1="436" y1="416.5" x2="299" y2="416.5" stroke="black"/>
<line x1="229.5" y1="302" x2="229.5" y2="391" stroke="black"/>
<line x1="544" y1="20.5" x2="89" y2="20.5" stroke="black"/>
<line x1="88.5" y1="74.0093" x2="88.5" y2="20" stroke="black"/>
<line x1="554.214" y1="156.452" x2="299.214" y2="277.452" stroke="black"/>
<line x1="543.367" y1="20.66" x2="645.367" y2="130.66" stroke="black"/>
<path d="M146.578 269.32L144.219 268.617L144.578 267.438L146.938 268.312L146.867 265.625H148.062L147.984 268.352L150.305 267.492L150.664 268.68L148.266 269.391L149.812 271.508L148.844 272.242L147.391 269.992L145.984 272.188L145.008 271.477L146.578 269.32Z" fill="black"/>
<path d="M292.578 106.32L290.219 105.617L290.578 104.438L292.938 105.312L292.867 102.625H294.062L293.984 105.352L296.305 104.492L296.664 105.68L294.266 106.391L295.812 108.508L294.844 109.242L293.391 106.992L291.984 109.188L291.008 108.477L292.578 106.32Z" fill="black"/>
<path d="M647.578 123.32L645.219 122.617L645.578 121.438L647.938 122.312L647.867 119.625H649.062L648.984 122.352L651.305 121.492L651.664 122.68L649.266 123.391L650.812 125.508L649.844 126.242L648.391 123.992L646.984 126.188L646.008 125.477L647.578 123.32Z" fill="black"/>
<path d="M305.578 282.32L303.219 281.617L303.578 280.438L305.938 281.312L305.867 278.625H307.062L306.984 281.352L309.305 280.492L309.664 281.68L307.266 282.391L308.812 284.508L307.844 285.242L306.391 282.992L304.984 285.188L304.008 284.477L305.578 282.32Z" fill="black"/>
<path d="M429.578 408.32L427.219 407.617L427.578 406.438L429.938 407.312L429.867 404.625H431.062L430.984 407.352L433.305 406.492L433.664 407.68L431.266 408.391L432.812 410.508L431.844 411.242L430.391 408.992L428.984 411.188L428.008 410.477L429.578 408.32Z" fill="black"/>
<path d="M97.5781 131.32L95.2188 130.617L95.5781 129.438L97.9375 130.312L97.8672 127.625H99.0625L98.9844 130.352L101.305 129.492L101.664 130.68L99.2656 131.391L100.812 133.508L99.8438 134.242L98.3906 131.992L96.9844 134.188L96.0078 133.477L97.5781 131.32Z" fill="black"/>
<path d="M307.271 411H306.182V403.775L303.996 404.578V403.594L307.102 402.428H307.271V411Z" fill="black"/>
<path d="M239.271 318H238.182V310.775L235.996 311.578V310.594L239.102 309.428H239.271V318Z" fill="black"/>
<path d="M448.271 92H447.182V84.7754L444.996 85.5781V84.5938L448.102 83.4277H448.271V92Z" fill="black"/>
<path d="M591.271 125H590.182V117.775L587.996 118.578V117.594L591.102 116.428H591.271V125Z" fill="black"/>
<path d="M85.2715 71H84.1816V63.7754L81.9961 64.5781V63.5938L85.1016 62.4277H85.2715V71Z" fill="black"/>
<path d="M239.271 387H238.182V379.775L235.996 380.578V379.594L239.102 378.428H239.271V387Z" fill="black"/>
<path d="M595.354 514.55C575.791 556.023 531.509 581.116 475.6 588.077C419.699 595.036 352.249 583.852 286.516 552.845C220.783 521.838 169.255 476.899 139.074 429.333C108.889 381.761 100.091 331.63 119.654 290.157C139.217 248.684 183.499 223.591 239.408 216.631C295.31 209.671 362.76 220.855 428.493 251.862C494.226 282.869 545.753 327.808 575.935 375.374C606.12 422.946 614.917 473.078 595.354 514.55Z" stroke="#3EAC49"/>
<path d="M726.207 172.449C723.839 185.366 715.344 196.573 701.918 205.77C688.49 214.968 670.16 222.131 648.208 226.955C604.306 236.602 546.015 236.872 483.75 225.455C421.485 214.038 367.081 193.105 329.458 168.509C310.646 156.21 296.05 143.01 286.759 129.646C277.469 116.284 273.503 102.792 275.872 89.8752C278.24 76.958 286.735 65.7511 300.161 56.5545C313.589 47.3565 331.919 40.1933 353.871 35.3693C397.773 25.7218 456.064 25.4519 518.329 36.8689C580.594 48.2858 634.997 69.2195 672.621 93.8155C691.433 106.114 706.029 119.315 715.32 132.678C724.61 146.04 728.576 159.532 726.207 172.449Z" stroke="#3EAC49"/>
<path d="M166.074 114.876C157.404 162.161 115.247 193.974 71.9855 186.042C28.7237 178.109 0.596881 133.408 9.26699 86.1239C17.9371 38.8394 60.0937 7.02558 103.356 14.9581C146.617 22.8906 174.744 67.5917 166.074 114.876Z" stroke="#3EAC49"/>
</g>
<defs>
<clipPath id="clip0">
<rect width="760" height="613" fill="white"/>
</clipPath>
</defs>
</svg>
